<svg xmlns="http://www.w3.org/2000/svg" viewBox="0 0 932.45 564.25">
  <defs>
    <style>
      .cls-1, .cls-2 {
        fill: none;
        stroke-miterlimit: 10;
      }

      .cls-1 {
        stroke: #1a1818;
      }

      .cls-2 {
        stroke: #040505;
      }

      .cls-3 {
        fill: #1a1818;
      }
    </style>
  </defs>
  <title>AlanObstacles</title>
  <g id="Layer_2" data-name="Layer 2">
    <g>
      <polyline class="cls-1" points="41.905 154.376 42.905 180.71 37.571 233.043 41.571 278.71"/>
      <polyline class="cls-1" points="160.571 152.043 159.571 178.376 155.238 231.126 159.905 275.928"/>
      <path class="cls-1" d="M131.971,128.354c6.636-1.181,1.261-2.091,3.445-2.843s4.184-.7,4.465.119-1.261,2.091-3.445,2.843S125.335,129.535,131.971,128.354Z" transform="translate(-17.008 -0.336)"/>
      <path class="cls-1" d="M124.219,190.966a9.994,9.994,0,0,0-6.556-1.649h-.75a10.2,10.2,0,0,0-7.58,2.394" transform="translate(-17.008 -0.336)"/>
      <path class="cls-1" d="M120.6,221.891a4.745,4.745,0,0,0,2.689-1.45s-.187-4.187,3.125-5,3.813-4.687,3.813-4.687l.438-10a25.644,25.644,0,0,0-1.1-3.065" transform="translate(-17.008 -0.336)"/>
      <path class="cls-1" d="M105.094,197.513a25.409,25.409,0,0,0-1.182,3.241l.438,10s.5,3.875,3.813,4.688,3.125,5,3.125,5a4.745,4.745,0,0,0,2.689,1.45" transform="translate(-17.008 -0.336)"/>
      <path class="cls-1" d="M107.534,205.427s5.9.956,6.528,3.372c0,0,3.422,5.8-8.1,1.148C105.964,209.947,104.911,203.615,107.534,205.427Z" transform="translate(-17.008 -0.336)"/>
      <path class="cls-1" d="M126.665,205.427s-5.9.956-6.528,3.372c0,0-3.422,5.8,8.1,1.148C128.236,209.947,129.289,203.615,126.665,205.427Z" transform="translate(-17.008 -0.336)"/>
      <path class="cls-1" d="M115.287,215l1.438-3.187s.688-1.25,1,.188a14.1,14.1,0,0,0,1.813,3.625s.125,1.75-1.187,1.25a1.936,1.936,0,0,0-2.062.25S114.35,217.066,115.287,215Z" transform="translate(-17.008 -0.336)"/>
      <path class="cls-1" d="M130.975,196.754s2.438,2.625,1.313,5.75c0,0,6.438-2.187,8.313-1.312,0,0,6-.312,4.188-4.437,0,0-2.687-2.062-.625-4.437s-2.5-4.437-2.5-4.437a6.223,6.223,0,0,0-6.062,3.875S132.475,196.316,130.975,196.754Z" transform="translate(-17.008 -0.336)"/>
      <path class="cls-1" d="M131.975,210.816s-.187,4.125-2.5,4.563c0,0,4.563,1.875,5.938,5.5a4.422,4.422,0,0,0,4.563,3.188s1.125,0,1.313-3.125a4.264,4.264,0,0,1,2.5-3.937s1.5-5.437-6.25-4.625Z" transform="translate(-17.008 -0.336)"/>
      <path class="cls-1" d="M102.975,196.754s-2.437,2.625-1.312,5.75c0,0-6.437-2.187-8.312-1.312,0,0-6-.312-4.187-4.437,0,0,2.688-2.062.625-4.437s2.5-4.437,2.5-4.437a6.223,6.223,0,0,1,6.063,3.875S101.475,196.316,102.975,196.754Z" transform="translate(-17.008 -0.336)"/>
      <path class="cls-1" d="M101.975,210.816s.188,4.125,2.5,4.563c0,0-4.562,1.875-5.937,5.5a4.422,4.422,0,0,1-4.562,3.188s-1.125,0-1.312-3.125a4.264,4.264,0,0,0-2.5-3.937s-1.5-5.437,6.25-4.625Z" transform="translate(-17.008 -0.336)"/>
      <path class="cls-1" d="M78.246,117.712s11.5-2,6.5,1.333S87.829,117.129,78.246,117.712Z" transform="translate(-17.008 -0.336)"/>
      <path class="cls-1" d="M132.5,134.34c0,.3-3.878,1.417-3.667.545s-3.667-.244-3.667-.545,1.642-.545,3.667-.545S132.5,134.039,132.5,134.34Z" transform="translate(-17.008 -0.336)"/>
      <path class="cls-1" d="M88.238,135.272c-.471-.012,10,3.877,9.375,5.854-.5,1.581-16.951-7.007-16.951-7.893s1.343-1.6,3-1.6S89.124,135.294,88.238,135.272Z" transform="translate(-17.008 -0.336)"/>
      <path class="cls-1" d="M156.063,141.872a3.712,3.712,0,0,1-3.555.069c-1.964-1.227-14.077,3.812-23.943,3.688a153.066,153.066,0,0,0-19.428.625c-4.717.5,8.215.875,11.093,1.625s-31.961,1.5-33.48.25,4.458-.565-14.631-6.417c-16.31-5-2.558-10.167-2.558-10.167s17.829-8.25,10.953-2.333-5.037,19.333,34.459,14.833c23.341-2.659,32.255-2.752,39.56-5.506,0,0,2.171-1.244,2.894.172S156.063,141.872,156.063,141.872Z" transform="translate(-17.008 -0.336)"/>
      <path class="cls-1" d="M68.62,123.793c.044-.429,3.953.617,2.812-1.172-.676-1.061,9.431,1.524,9.48,2.008s-6.9.837-8.5,1S68.57,124.281,68.62,123.793Z" transform="translate(-17.008 -0.336)"/>
      <path class="cls-1" d="M156.079,133c0,.713-8.958,6.708-7.917,4.125s.167-3.412.167-4.125,1.735-1.292,3.875-1.292S156.079,132.29,156.079,133Z" transform="translate(-17.008 -0.336)"/>
      <path class="cls-1" d="M153.079,126.129c0,.782-6.627,4.883-8.417,4.75-1.445-.108,8.8-6.087,1.917-4.75-.768.149,1.455-1.417,3.25-1.417S153.079,125.346,153.079,126.129Z" transform="translate(-17.008 -0.336)"/>
      <path class="cls-1" d="M113.43,131.5c0,.618-1.336,1.224-2.974,1.119-1.322-.085,3.324-2.175-2.974-1.119-.7.118,1.331-1.119,2.974-1.119S113.43,130.88,113.43,131.5Z" transform="translate(-17.008 -0.336)"/>
      <path class="cls-1" d="M152.829,119.212c5.235-1.487,15.667-4.75,11-2.083S146.079,121.129,152.829,119.212Z" transform="translate(-17.008 -0.336)"/>
      <path class="cls-1" d="M103.9,138.1c-4.653,1.249-8.768,3.376,4.857,2.3s31.365-.11,34.458-3.811-20.545,3.915-19.108.326-.08-.732-9.636.509S103.9,138.1,103.9,138.1Z" transform="translate(-17.008 -0.336)"/>
      <path class="cls-1" d="M103.662,132.212c-3.215-3.831-1.167-2.5-11.667-3.25s1.25,1.167,4.25,1.917,5.25,5.583,15.75,4.5,21.5-5.75,12.167-4.333-.667.833-1.333,1S107.579,136.879,103.662,132.212Z" transform="translate(-17.008 -0.336)"/>
      <path class="cls-1" d="M93.234,126.958c1.974-.133,15.2-.353,19.769.133s7.081,1.811,11.95.574,1.4.486-.148.839-11.433.53-14.458-.265-6.417-.928-11.36-.618S88,127.311,93.234,126.958Z" transform="translate(-17.008 -0.336)"/>
      <ellipse class="cls-1" cx="86.472" cy="184.48" rx="2.276" ry="3.688"/>
      <ellipse class="cls-1" cx="98.633" cy="174.355" rx="1.645" ry="3.063"/>
      <ellipse class="cls-1" cx="96.86" cy="182.637" rx="1.164" ry="1.844"/>
      <ellipse class="cls-1" cx="107.759" cy="180.949" rx="1.688" ry="3.531"/>
      <ellipse class="cls-1" cx="91.418" cy="168.855" rx="1.721" ry="3.063"/>
      <ellipse class="cls-1" cx="107.759" cy="165.98" rx="1.688" ry="4.313"/>
      <ellipse class="cls-1" cx="98.551" cy="162.043" rx="1.021" ry="2.125"/>
      <ellipse class="cls-1" cx="103.926" cy="154.48" rx="1.271" ry="1.813"/>
      <ellipse class="cls-1" cx="116.509" cy="182.043" rx="1.813" ry="3"/>
      <ellipse class="cls-1" cx="113.978" cy="173.668" rx="1.51" ry="2.375"/>
      <path class="cls-1" d="M213.087,120.022l-22.029,22.244h-25.9V124.894h5.961l.034,10.947,15.455.015,20.965-24.639c-.378-.525-.645-.839-.744-.839-.667,0-25.833.333-25.833.333l-4.333,3.333-.667,3.5c-6.6-.413-10.346,1.6-8-1.5,4.667-6.167-43,7.583-44.333,8.083a23.591,23.591,0,0,1-3.656.111L120,97.481h-8.681v26.456c-11.036-.615-25.184-2.232-23.323-5.557,3.917-7-27.5.667-27.5.667v-1.5l-.667-5.5L55.5,110.712l-25.918.014c-.667,0-8.749,11.652-8.749,11.652s-.289,1.343-.7,3.394l8.452,9.933,15.455-.015.034-10.947h5.961v17.372h-25.9l-5.841-5.9c-.627,4.235-1.023,8.241-.633,9.994,1,4.5,3,31.833,3,31.833L20.079,202.5l.857,16.918h6.491l.007-21.042h8.184l.5,21.261.07,11.707-.007,21.042H28.49L27.5,231.129H21.576l1.336,23.833-1.3,30h91.281l.31-19.909h8.371l.007,19.908h94.7l-2.7-28L217.917,231h-9l-.5,21.261h-8.184l-.007-21.042.07-11.707.5-21.261h8.184l.007,21.042h9.24l-.814-13.54-1.583-25.71s2-27.333,3-31.833-3.167-23.833-3.167-23.833S214.536,122.448,213.087,120.022Z" transform="translate(-17.008 -0.336)"/>
    </g>
    <g>
      <ellipse class="cls-1" cx="530.983" cy="377.238" rx="2.625" ry="2.563"/>
      <path class="cls-1" d="M568.407,415.553s21.167-.833,20.833-6.167" transform="translate(-17.008 -0.336)"/>
      <path class="cls-1" d="M697.9,428.463V407.2h-8.681l.081,21.269h-20.02l-.088,1.255c-.482.029-.952.053-1.459.09,0,0-17.827-6.083-23.769,35.626,0,0-.257,5.237-19.96,5.237s-21.024-8.407-21.217-12.35,1.771-28.129,16.157-39.122c0,0,5.629-17.136,13.761-1.617,0,0,.625-12.083-9.382-15.64l.313-3.436s5.942-7.76,11.884,2.263c0,0,2.5-10.346-12.51-11.316l-.625-5.5s10.633-6.79,15.637-2.263c0,0-.625-5.5-15.637-3.557l-3.127-3.88s1.876-7.113,10.321-4.2c0,0-1.564-9.053-15.637,1.293,0,0-7.819-2.263-13.135-.647,0,0-8.444-6.466-.938-11.963,0,0-2.5-10.67,9.07-7.76,0,0-1.876-7.436-14.386,1.617,0,0-4.189-8.966-15.012-5.5,0,0-.681-.033-1.717-.039l-.007-20.288h-8.68v21.261h.053c-1.161.418-1.961,1.011-2.034,1.849-.292,3.375-3.583,7.167-3.583,7.167s-20.833,1.708-23.417,19.583c0,0,.605,10.885-2.835,19.615,0,0-5.942,11.316,8.131,1.617,11.965-8.246,14.66-13.92,14.046-17.025.985,2.727,2.337,8.9-3.1,13.792l-6.411,6.628s15.085-5.4,18.127-12.751c0,0,8.125-7.625,7.362.627,0,0-15.112,18-10.008,24.249,0,0,.313,59.168,2.815,62.4,0,0,3.513,8.106,14.273,14.5V473.674h8.184l.5,20.661c6.963,2.464,15.843,3.987,27.079,3.438,39.719-1.94,44.356-17.294,44.356-17.294s-1.923-27.647,8.757-34.272c.488-.3.228-6.536,2.91-7.028l-.163,1.125H689.3l-.019,20.907h8.68l.007-21.042Z" transform="translate(-17.008 -0.336)"/>
    </g>
    <path class="cls-1" d="M579.317,259.462c-2.5-1.5,3-18.5,0-24.5a7.686,7.686,0,0,1-1.13-3.959h-7.521l-.5,21.261h-8.184l-.007-21.042.07-11.707.5-21.261h8.184l.007,21.042h9.509c.245-6.054.52-13.176-.427-14.833-2-3.5,3-29.5.5-35-1.886-4.149-2.823-29.54-3.17-41.763l-19.6,19.789h-25.9V130.116h5.961l.034,10.947,15.455.015,16.97-19.944H525.984s-6.667,23.827-12.167,29.327-1.5,22,0,25c2.223,4.447,1.2,24.057,2.5,26,2,3-6,22.5-8.5,28s-1.5,18.567-1.5,18.567h-11.5l-6-57.067-3,63.532-8-63.532-3,63.032-8-63.532-3,64.532-6.5-64.532-3,43.666-5-43.166L439.27,180.2l.091,0-.007-21.042h-8.68v21.261h.035l-12.891,12.045-3,40.166-6.5-40.666-4,62.032-7.5-60.032-3,60.032-6.5-58.532-3,59.032-5.5-56.032-4,55.532-5-53.532-3,45.083-14.5,1s2-1.548,2.5-8.048,10.5-9.535,3-13.035,8.5-15,2-18.5-3-52-1-61-4.646-24.827-4.646-24.827L311.489,121l17,19.984,15.455-.015.034-10.947h5.961v17.372h-25.9L301.275,124.4l-.112,9.208s-8.012,18.292-4.012,23.792,6.7,44.086,3.683,45.419c-1.214.537-2.047,9.05-2.609,16.638h-18.9l-.007-21.042h-8.681v21.261l-.07,11.707.007,21.042h8.681V231.164h18.311c-.31,7.264-.414,11.194-.414,11.194l2.167,42.6H430.83l.279-21.93h8.4l.007,21.929h139.8S581.817,260.962,579.317,259.462Z" transform="translate(-17.008 -0.336)"/>
    <g>
      <circle class="cls-1" cx="760.247" cy="192.522" r="3.521"/>
      <path class="cls-1" d="M764.484,197.629s12.833,14,25.333,0" transform="translate(-17.008 -0.336)"/>
      <path class="cls-1" d="M927.358,259.528c-2.5-1.5-1-18.5-4-24.5a13.075,13.075,0,0,1-1.021-4.193H912.9l-.5,21.261h-8.184l-.007-21.042.07-11.707.5-21.261h8.184l.007,21.042h9.248c.25-6.542.651-12.824-.364-14.6-2-3.5,1.793-19.733-.707-25.233s-59.962,33.723-58.667,35.667c2,3-10.126,9.066-12.626,14.566s-1.5,21-1.5,21l-11.5-21.859-9,1-11-.5-11,1,.436-.994-8-.5L794.326,211.4a14.944,14.944,0,0,0,3.956-2.6v.006c38.021,5.657,60.989-22.956,60.989-22.956,10.2-14.588-.252-35.726-.252-35.726s2.387,22.329-7.541,19.947c0,0-9.627,20.542-20.458,12.206,0,0-9.3,13.695-21.8,6.252,0,0-8.92,10.238-18.99,2.368a14.865,14.865,0,0,0-8.426-5.628l-.495-5,.091,0-.007-21.042h-8.68v21.261h.035l-.45,5.383A14.736,14.736,0,0,0,765.663,191c-9.405,5.723-17.411-3.468-17.411-3.468-12.5,7.443-21.8-6.252-21.8-6.252C715.623,189.617,706,169.074,706,169.074c-9.928,2.382-7.541-19.947-7.541-19.947S688,170.265,698.2,184.853c0,0,23.56,28.565,61.313,23.294a14.831,14.831,0,0,0,3.258,2.556l-3.367,17.473-2.548-.5-10.5,1.494h-10.5l-9.5.5-9.5.99-8-.5-14.5,21.369a59.235,59.235,0,0,0,2.5-12.5c.5-6.5,10.5-18,3-21.5s-13.874-10.15-20.374-13.65-33.658-24.418-33.658-24.418l.2,39.834h-20.3l-.007-21.042h-8.681v21.261l-.07,11.707.007,21.042h8.681V231h20.431l.272,54.026H772.87l.5-21.93h8.184l.007,21.929h140.8S929.858,261.028,927.358,259.528Z" transform="translate(-17.008 -0.336)"/>
    </g>
    <g>
      <path class="cls-1" d="M142.9,385.154" transform="translate(-17.008 -0.336)"/>
      <g>
        <path class="cls-1" d="M162.048,455.22s3.879.072,3.4,1.032,4.713,1.775,6.512,1.875,2.1,3.2,4,1.9c0,0-8.272,7.032-14.752,1.272,0,0-1.92-.56-3.96-1.28,0,0,3.72-3.12.84-6.36Z" transform="translate(-17.008 -0.336)"/>
        <path class="cls-1" d="M197.221,455.22s-3.192.572-2.712,1.532-5.4,1.275-7.2,1.375-2.1,3.2-4,1.9c0,0,8.272,7.032,14.752,1.272,0,0,1.92-.56,3.96-1.28,0,0-3.72-3.12-.84-6.36Z" transform="translate(-17.008 -0.336)"/>
        <path class="cls-1" d="M140.288,406.3l9.6-9.84s1.68,8.88,5.04,9.6" transform="translate(-17.008 -0.336)"/>
        <path class="cls-1" d="M201.488,406.54s9.12-4.08,5.76-11.28c0,0,10.08,9.6,10.8,13.2" transform="translate(-17.008 -0.336)"/>
        <path class="cls-1" d="M146.448,435.82s5.2-12.16,4.8-12.88c0,0-.08,6.16,1.04,7.52,0,0,3.52-3.28,3.04-4.96,0,0,.72,5.84,2.16,4.56,0,0,4.32-4.64,2.56-7.12,0,0,3.12.8,2.72,2.4,0,0,2.16-3.12,3.04-2.48,0,0-4.8,8.56-1.28,7.44l5.28-9.52-1.92,6.16s4.705,5.421,5.838,3.888l-.2-4.267,1.4,3.4,5.067-5.6-1.867,5.267s.133,2.467,1.867,1.067l1.133-2.933.4,2.467,7-7.533-2.467,5.6s-1.333,3.267.467,2.2,1.933-2.267,1.933-2.267-1.467,2.733-.333,2.867,5.6-8.714,5.6-8.714-2.64,6.8-.24,5.92,6-1.76,4.96-2.72c0,0-1.2,5.44,1.12,5.68s3.52-9.48,3.52-9.48-1.52,10.68.56,10.84,2.68-6.4,2.68-6.4-1.4,7.04.68,7.52,4.6-3.56,4.6-3.56-2.12,4.04.36,4.44,4.08-5.76,4.08-5.76-2.72,6.6.48,6.84" transform="translate(-17.008 -0.336)"/>
        <g>
          <path class="cls-1" d="M207.1,482.528s-.1-.134-.27-.328A.579.579,0,0,0,207.1,482.528Z" transform="translate(-17.008 -0.336)"/>
          <path class="cls-1" d="M196,485.411c.187,0,.3,0,.3,0A1.057,1.057,0,0,1,196,485.411Z" transform="translate(-17.008 -0.336)"/>
          <path class="cls-1" d="M216.577,476.408s-.064-.09-.152-.223C216.454,476.3,216.5,476.382,216.577,476.408Z" transform="translate(-17.008 -0.336)"/>
          <path class="cls-1" d="M142.329,476.184c-.088.133-.152.223-.152.223C142.255,476.382,142.3,476.3,142.329,476.184Z" transform="translate(-17.008 -0.336)"/>
          <path class="cls-1" d="M151.927,482.2c-.166.193-.27.328-.27.328A.579.579,0,0,0,151.927,482.2Z" transform="translate(-17.008 -0.336)"/>
          <path class="cls-1" d="M162.757,485.411a1.057,1.057,0,0,1-.3,0S162.571,485.412,162.757,485.411Z" transform="translate(-17.008 -0.336)"/>
        </g>
      </g>
      <path class="cls-1" d="M333.532,429.246V407.985h-8.68l-.007,21.042H312.459l3.238-4.22-6.488,4.22h-1.561l2.23-5.72,3.42-4.02s-3.12-.72-2.4-1.92a41.67,41.67,0,0,1,3.84-4.32s-3.12.72-2.88-.72,3.12-5.76,3.12-5.76-4.56,1.92-3.12.96,2.4-6.24,2.4-6.24-4.8,3.12-3.84,2.4,3.12-5.52,3.12-5.52l-4.68,2.58s2.76-6.18,2.04-5.46-6,3.36-6,3.36v-3.12l-3.84,4.56v-3.84l-1.92-3.18.06,7.98-2.1-1.8-.12,3.72-1.44-1.68-.72,3.84-5.09,1.175-.9-2,1.7-4.9-2.3.2.7-7.6-7.79,13.845v-2.4s-5.76,6.48-10.32,10.56c-2.762,2.471-10.185,4.412-15.614,5.56l-1.906-5.92,9.24-1.92-9.72-3.12s1.2-2.4,2.52-2.64c0,0-1.68-5.04-5.04-5.04s-8.04-10.08-6.72-11.04c1.294-.941-7.3-6.026-6.063-9.844,1.817-1.209,8.019-5.129,12.783-5.636l5.52-1.68s-6.12-4.92-8.16-4.56l-4.92-.96,6.96-4.92-13.8,2.64s-3.72-6.24-2.28-8.4l1.92-4.2-4.32.6,3.48-5.16s-8.04,1.92-12.84,2.64a19.563,19.563,0,0,1-7.68-.12s-3.6,4.92-8.64,2.64-10.32-6.84-11.88-6.84c0,0-8.585-2.031-10.336-2.983l-.007-21.042h-8.68v21.261h.16c-2.227.613-9.7,2.764-9.7,2.764-1.56,0-6.84,4.56-11.88,6.84s-8.64-2.64-8.64-2.64a19.562,19.562,0,0,1-7.68.12c-4.8-.72-12.84-2.64-12.84-2.64l3.48,5.16-4.32-.6,1.92,4.2c1.44,2.16-2.28,8.4-2.28,8.4l-13.8-2.64,6.96,4.92-4.92.96c-2.04-.36-8.16,4.56-8.16,4.56l5.52,1.68c4.764.507,10.966,4.427,12.783,5.636,1.234,3.817-7.356,8.9-6.063,9.844,1.32.96-3.36,11.04-6.72,11.04s-5.04,5.04-5.04,5.04c1.32.24,2.52,2.64,2.52,2.64l-9.72,3.12,9.24,1.92-1.907,5.92c-5.429-1.148-12.852-3.089-15.613-5.56-4.56-4.08-10.32-10.56-10.32-10.56v2.4L73,397.955l-7.772-4.148,4.4,4.795,1.27,6.525-1,2.234-5.957-2.234-.72-3.84-1.44,1.68-.12-3.72-2.1,1.8.06-7.98-1.92,3.18v3.84l-3.84-4.56v3.12s-5.28-2.64-6-3.36,2.04,5.46,2.04,5.46l-4.68-2.58s2.16,4.8,3.12,5.52-3.84-2.4-3.84-2.4.96,5.28,2.4,6.24-3.12-.96-3.12-.96,2.88,4.32,3.12,5.76-2.88.72-2.88.72a41.662,41.662,0,0,1,3.84,4.32c.72,1.2-2.4,1.92-2.4,1.92l3.42,4.02,2.3,6.319h-.973l-7.152-5.19,3.507,5.19H32.059l.133-21.128H23.5v20.889l-.07,11.707.007,21.042h8.681V440.876H49.773l1.984,1.92,3.78,5.051s-.24,15.12-2.16,17.04c0,0,3.12,9.12-.96,12.48s-1.075,8.956-1.075,8.956-4.32,6.24-2.16,7.68,27.12.72,27.84.48,1.44-6-3.6-7.2-2.525-9.916-2.525-9.916l-.72-3.6s2.88-2.4,1.2-4.08-3.6-7.92-3.6-7.92l.24-7.92s-1.44-24-.72-26.16,5.28-9.84,5.28-9.84,26.28,24.72,32.88,25.44l3.36-1.56s4.2,3.84,3.24,6.36l-2.64,5.64s4.32-1.68,5.52-1.68l1.92,2.4s5.4.72,5.4,2.28,6.84,4.44,7.44,4.32,0-3,0-3,3.48,9.24,3.84,9.24,1.08-4.92,1.08-4.92,3.24,13.92,5.16,14.88c0,0-.84-4.68.36-5.16,1.071-.428,2.424,3.15,2.192,4.1a6.53,6.53,0,0,0,1.168-3.137c0-1.56,4.68,2.88,2.28,5.4,0,0,1.56-1.56,2.76-.6s.6,3.72.6,3.72,1.32-3.72,1.8-3.36c.418.313,1.379,2.986.99,3.993.565-.656,1.967-2.1,3.45-2.193,1.92-.12,3.12,1.56,3.96,1.56,0,0-2.4-3.12-.36-3.6s4.44,4.92,4.44,4.92.514,2.375-.66,2.524c.8,0,2.934-.089,3.42-.964.6-1.08,3.72,3.12,3.84,3.72a3.779,3.779,0,0,1,2.16-1.32s2.292,1.394,3.158,1.924l.5-20h8.5v19.492c.569-.29,2.242-1.416,2.242-1.416a3.778,3.778,0,0,1,2.16,1.32c.12-.6,3.24-4.8,3.84-3.72.486.875,2.624.962,3.42.964-1.174-.149-.66-2.524-.66-2.524s2.4-5.4,4.44-4.92-.36,3.6-.36,3.6c.84,0,2.04-1.68,3.96-1.56,1.483.093,2.885,1.536,3.45,2.193-.389-1.006.572-3.679.99-3.993.48-.36,1.8,3.36,1.8,3.36s-.6-2.76.6-3.72,2.76.6,2.76.6c-2.4-2.52,2.28-6.96,2.28-5.4a6.53,6.53,0,0,0,1.168,3.137c-.233-.946,1.12-4.525,2.192-4.1,1.2.48.36,5.16.36,5.16,1.92-.96,5.16-14.88,5.16-14.88s.72,4.92,1.08,4.92,3.84-9.24,3.84-9.24-.6,2.88,0,3,7.44-2.76,7.44-4.32,5.4-2.28,5.4-2.28l1.92-2.4c1.2,0,5.52,1.68,5.52,1.68l-2.64-5.64c-.96-2.52,3.24-6.36,3.24-6.36l3.36,1.56c6.6-.72,32.88-25.44,32.88-25.44s4.56,7.68,5.28,9.84-1.92,26.16-1.92,26.16l.24,7.92-.161.909s-1.283,5.66-2.963,7.34,1.2,4.08,1.2,4.08l-.72,3.6s2.64,8.16-2.4,9.36-4.32,6.96-3.6,7.2,25.68.96,27.84-.48-2.16-7.68-2.16-7.68,2.88-5.04-1.2-8.4-1.037-11.35-1.037-11.35l-.4-1.459c-1.92-1.92-.96-17.04-.96-17.04l3.78-4.68,2.514-2.433h15.4V462h8.681l.007-21.042Z" transform="translate(-17.008 -0.336)"/>
    </g>
    <g>
      <path class="cls-1" d="M458.921,442.492a12.8,12.8,0,0,1-21.882,0" transform="translate(-17.008 -0.336)"/>
      <path class="cls-1" d="M458.921,442.492" transform="translate(-17.008 -0.336)"/>
      <path class="cls-1" d="M460.747,434.931q.032.453.032.914" transform="translate(-17.008 -0.336)"/>
      <path class="cls-1" d="M444.256,432.979" transform="translate(-17.008 -0.336)"/>
      <path class="cls-1" d="M435.242,434.572a12.756,12.756,0,0,1,.341-1.927h8.9l-.135.333s-1.267,4,3.733,4,3-4.1,3-4.1l.142-.233h9.155a12.772,12.772,0,0,1,.371,2.286" transform="translate(-17.008 -0.336)"/>
      <polyline class="cls-1" points="408.838 461.31 431.772 466.91 450.438 459.443"/>
      <path class="cls-1" d="M478.983,432.118c2.273,1.821,3.776,4.4,3.358,5.751s-2.6.978-4.873-.842-3.776-4.4-3.358-5.751S476.71,430.3,478.983,432.118Z" transform="translate(-17.008 -0.336)"/>
      <path class="cls-1" d="M486.058,441.652c1.3,1.1,2.267,2.508,2.168,3.151s-1.23.274-2.526-.824-2.267-2.508-2.168-3.151S484.762,440.555,486.058,441.652Z" transform="translate(-17.008 -0.336)"/>
      <path class="cls-1" d="M481.579,409.579s-21.311,1.2-25.722,0l-5.986-2.417h-1.117l-5.986,2.417c-4.411,1.2-25.722,0-25.722,0" transform="translate(-17.008 -0.336)"/>
      <path class="cls-1" d="M411.979,420.112c-1.467,2.4,8.665-2.932,8.665-2.932s19.313-2,22.124-.535a51.233,51.233,0,0,1,5.872,3.758l1.452.017a44.652,44.652,0,0,1,5.764-3.775c2.811-1.467,22.124.535,22.124.535s10.132,5.332,8.665,2.932" transform="translate(-17.008 -0.336)"/>
      <ellipse class="cls-1" cx="405.322" cy="412.443" rx="1.55" ry="1.2"/>
      <ellipse class="cls-1" cx="415.526" cy="412.611" rx="1.55" ry="1.2"/>
      <ellipse class="cls-1" cx="444.906" cy="412.696" rx="1.55" ry="1.2"/>
      <ellipse class="cls-1" cx="460.66" cy="412.78" rx="1.55" ry="1.2"/>
      <path class="cls-1" d="M408.579,429.59s3.733-6.492,11.333-6.979" transform="translate(-17.008 -0.336)"/>
      <path class="cls-1" d="M482.013,422.98s7.333,4.267,7.733,7.467" transform="translate(-17.008 -0.336)"/>
      <path class="cls-1" d="M502.424,483.285c-1.877-3.968-3.29-23.881-11.189-43.4a17.357,17.357,0,0,0,1.135-6.2c0-5.2,2.01.89,2.01.89s2.872-35-13.077-47.276c0,0-15.949-10.608-24.412-13.1a17.525,17.525,0,0,0-4.569-4.087l-.007-19.893h-8.681v20.463a14.3,14.3,0,0,0-3.018,3.518c-8.463,2.5-24.412,13.1-24.412,13.1-11.948,9.194-13.361,30.959-13.318,41.3H367.711l-.007-21.042h-8.681v21.261l-.07,11.707.007,21.042h8.681V440.305h36.875c-11.576,26.588-13.755,53.9.175,50.049l16.661,4.034,22.272-.035.5-20.929h8.184l.007,20.925,29.721.038s5.375-5.9,10.32-7.124C495.986,486.362,505.878,490.585,502.424,483.285Z" transform="translate(-17.008 -0.336)"/>
    </g>
    <g>
      <path class="cls-1" d="M948.888,428.817V407.556h-8.681L940.2,428.6H919.234c-.042-6.53.156-12.059.85-13.89a.522.522,0,0,0,.031-.264c-.212-1.517-1.992-15.125,1.463-20.251a.577.577,0,0,1,.251-.2l1.546-.674a.56.56,0,0,1,.764.659l-1.031,3.826,3.159-6.716a.56.56,0,0,1,1.022.019l.947,2.229-.1-5.215a.559.559,0,0,1,.03-.191l1.165-3.429a.542.542,0,0,0,.029-.2c-.052-1.087-.5-10.393-.5-9.825,0,.368-.422,3.716-.751,6.269a.56.56,0,0,1-1.1.061l-1.5-6.025-.429,3.548a.56.56,0,0,1-1.057.183,42.519,42.519,0,0,1-1.866-4.036c0-.236-.378,1.693-.642,3.066a.56.56,0,0,1-1.01.214l-.643-.925a.56.56,0,0,0-1.014.4l.366,2.463-3.9-6.641,2.112,6.32a.56.56,0,0,1-.7.711l-2.745-.873a27.031,27.031,0,0,1,2.872,2.415c.288.452-3.192,3.015-3.812,3.741a.5.5,0,0,1-.279.168c-1.241.289-8.058,1.856-9.5,1.783a.54.54,0,0,0-.317.088c-1.561.974-13.562,8.418-18.261,9.876a.525.525,0,0,0-.233.147l-2.573,2.758a2.513,2.513,0,0,0-.168-1.185s-4.861-10.58-3.849-13.457a.5.5,0,0,0-.047-.475c-.881-1.179-5.069-6.683-6.531-6.746a.486.486,0,0,1-.469-.268c-.572-1.4-2.5-6.261-1.977-6.781.584-.584-5.132-3.968-5.606-4.247a.549.549,0,0,0-.064-.032c-.643-.273-10.477-4.463-11.2-5.429a.524.524,0,0,0-.269-.189l-13.865-4.307a.56.56,0,0,1-.137-.064l-2.077-1.339a.56.56,0,0,1-.257-.471v-23.1a.56.56,0,0,0-.56-.56h-7.563a.56.56,0,0,0-.56.56v23.224a.56.56,0,0,1-.384.532l-2.418.8L810,361.368a.5.5,0,0,0-.255.185c-.671.949-10.563,5.163-11.208,5.438a.549.549,0,0,0-.064.032c-.474.279-6.19,3.663-5.606,4.247.521.521-1.4,5.377-1.977,6.781a.486.486,0,0,1-.469.268c-1.462.063-5.649,5.566-6.531,6.746a.5.5,0,0,0-.047.475c1.012,2.877-3.849,13.457-3.849,13.457a2.513,2.513,0,0,0-.168,1.185l-2.573-2.758a.525.525,0,0,0-.233-.147c-4.7-1.458-16.7-8.9-18.261-9.876a.54.54,0,0,0-.317-.088c-1.444.073-8.262-1.494-9.5-1.783a.5.5,0,0,1-.279-.168c-.62-.725-4.1-3.289-3.812-3.741a27.037,27.037,0,0,1,2.872-2.415l-2.745.873a.56.56,0,0,1-.7-.711l2.112-6.32-3.9,6.641.366-2.463a.56.56,0,0,0-1.014-.4l-.643.926a.56.56,0,0,1-1.01-.214c-.264-1.373-.642-3.3-.642-3.066a42.519,42.519,0,0,1-1.866,4.036.56.56,0,0,1-1.057-.183l-.429-3.548-1.5,6.025a.56.56,0,0,1-1.1-.061c-.329-2.553-.751-5.9-.751-6.269,0-.569-.45,8.738-.5,9.825a.542.542,0,0,0,.029.2l1.165,3.429a.559.559,0,0,1,.03.191l-.1,5.215.947-2.229a.56.56,0,0,1,1.022-.019l3.159,6.716-1.031-3.826a.56.56,0,0,1,.764-.659l1.546.674a.577.577,0,0,1,.251.2c3.455,5.126,1.674,18.734,1.463,20.251a.522.522,0,0,0,.031.264c.694,1.831.892,7.359.85,13.89H721.021l-.007-21.042h-8.68v21.261l-.07,11.707.007,21.042h8.681V440.305H742.2c-.306,8.865-.773,16.814-.836,17.868a.507.507,0,0,0,.043.233c2.055,4.816-.872,10.089-1.405,10.982a.533.533,0,0,1-.214.2c-3.366,1.774-1.3,10.614-.791,12.585a.571.571,0,0,1-.156.566c-1.383,1.279-5.893,8.879-5.893,8.879-1.846,3.743,29.024,2.105,29.024,2.105,3.526.461-4.573-10.262-5.311-11.41a.486.486,0,0,0-.143-.142c-4.469-3.017-2.585-9.622-2.278-10.6a.544.544,0,0,0,.016-.257l-.694-4.083a.561.561,0,0,1,.808-.588c2.876,1.346-.477-5.331-.875-6.107a.508.508,0,0,1-.051-.164l-2.131-14.1a.561.561,0,0,1-.005-.121l2.449-36.766a.559.559,0,0,1,.065-.227l4.873-9.112a.56.56,0,0,1,.819-.192l25.042,17.892a3.631,3.631,0,0,0,1.849,1.106.572.572,0,0,1,.325.285,19.912,19.912,0,0,0,2.17,3.847c.99.609,5.713,8.836,5.713,8.836.41.923,3.823,2.018,6.01,2.636a.559.559,0,0,1,.014,1.07.56.56,0,0,0,.051,1.08l1.052.23a.56.56,0,0,1,.245.972l-.978.838a.56.56,0,0,0,.513.965l1.3-.357a.56.56,0,0,1,.515.963l-1.561,1.353,8.912-4.494-1.9,1.826a.56.56,0,0,0,.61.918l1.233-.531a.56.56,0,0,1,.72.769l-1.276,2.5,1.708-1.475a.56.56,0,0,1,.891.618l-.124.336a.56.56,0,0,0,.933.578l.541-.575a.56.56,0,0,1,.958.486l-.87,4.678,2.438-4.875.533,2.971.962-1.924a.56.56,0,0,1,.875-.166c1.024.911,2.886,2.471,2.886,2.471.821,1.164-.079,5.587-.271,6.472a.542.542,0,0,1-.148.27l-7.858,7.959a.6.6,0,0,0-.145.246c-2.606,8.808,3.911,11.047,6.973,11.609a.555.555,0,0,0,.635-.726,18.3,18.3,0,0,1-.633-4.779c-.454-1.59,1.378-2.376,2.34-2.673a.573.573,0,0,0,.372-.676c-.209-1.116,1.342-.692,2.748.78a.561.561,0,0,0,.976-.385l.216-12.493c-.007-.314-.251-.573.063-.573H834.6a.56.56,0,0,1,.559.582l-.537,13.474c.142.415.236.716.236.716,1.515-2.478,4.025-3.5,3.763-2.1a.573.573,0,0,0,.372.676c.962.3,2.794,1.082,2.34,2.673a17.388,17.388,0,0,1-.534,4.677.555.555,0,0,0,.632.72c3.027-.526,9.485-2.686,6.876-11.5a.6.6,0,0,0-.145-.246l-7.859-7.959a.542.542,0,0,1-.148-.27c-.191-.885-1.092-5.309-.271-6.472,0,0,1.862-1.56,2.886-2.471a.56.56,0,0,1,.875.166l.962,1.924.533-2.971,2.438,4.875-.87-4.678a.56.56,0,0,1,.958-.486l.541.575a.56.56,0,0,0,.933-.578l-.124-.336a.56.56,0,0,1,.891-.618l1.708,1.475-1.276-2.5a.56.56,0,0,1,.72-.769l1.233.531a.56.56,0,0,0,.61-.918l-1.9-1.826,8.912,4.494-1.561-1.353a.56.56,0,0,1,.515-.963l1.3.357a.56.56,0,0,0,.513-.965l-.978-.838a.56.56,0,0,1,.245-.972l1.052-.23a.56.56,0,0,0,.051-1.08.559.559,0,0,1,.014-1.07c2.187-.618,5.6-1.713,6.01-2.636,0,0,4.723-8.227,5.713-8.836a19.916,19.916,0,0,0,2.17-3.847.572.572,0,0,1,.325-.285,3.63,3.63,0,0,0,1.849-1.106l25.042-17.892a.56.56,0,0,1,.819.192l4.873,9.112a.559.559,0,0,1,.065.227l2.449,36.766a.561.561,0,0,1-.005.121l-2.131,14.1a.508.508,0,0,1-.051.164c-.4.776-3.75,7.454-.875,6.107a.561.561,0,0,1,.808.588l-.694,4.083a.544.544,0,0,0,.016.257c.308.974,2.191,7.579-2.278,10.6a.486.486,0,0,0-.143.142c-.737,1.148-8.836,11.871-5.31,11.41,0,0,30.87,1.638,29.024-2.105,0,0-4.51-7.6-5.893-8.879a.571.571,0,0,1-.156-.566c.509-1.971,2.576-10.811-.791-12.585a.533.533,0,0,1-.214-.2c-.533-.893-3.46-6.166-1.405-10.982a.507.507,0,0,0,.043-.233c-.063-1.054-.53-9-.836-17.868H940.27v21.261h8.681l.007-21.042Z" transform="translate(-17.008 -0.336)"/>
      <path class="cls-2" d="M842.971,409.743c0,5.9-5.345,10.688-11.938,10.688S819.1,415.645,819.1,409.743a9.675,9.675,0,0,1,.1-1.411" transform="translate(-17.008 -0.336)"/>
      <circle class="cls-2" cx="813.7" cy="410.233" r="2.236"/>
    </g>
  </g>
  <g id="Layer_5" data-name="Layer 5">
    <g>
      <path class="cls-3" d="M54.521,3.3a7.824,7.824,0,0,1,4.107,1.154,8.022,8.022,0,0,1,3,3.223,9.882,9.882,0,0,1,1.084,4.658,9.943,9.943,0,0,1-1.09,4.676,8.145,8.145,0,0,1-2.994,3.252,7.606,7.606,0,0,1-4.037,1.166,7.256,7.256,0,0,1-3.914-1.143,8.229,8.229,0,0,1-2.936-3.27A10.058,10.058,0,0,1,46.634,12.3a9.823,9.823,0,0,1,1.072-4.611,8.168,8.168,0,0,1,2.936-3.223A7.21,7.21,0,0,1,54.521,3.3Zm.188.9a4.413,4.413,0,0,0-3.7,1.9Q49.587,8,49.587,12.293q0,4.652,1.453,6.434a4.593,4.593,0,0,0,6.234.973,5.412,5.412,0,0,0,1.811-2.566,13.138,13.138,0,0,0,.674-4.617,14.855,14.855,0,0,0-.633-4.869,5.3,5.3,0,0,0-1.8-2.6A4.368,4.368,0,0,0,54.708,4.207Z" transform="translate(-17.008 -0.336)"/>
      <path class="cls-3" d="M68.185,3.469v8.167a4.887,4.887,0,0,1,1.535-1.461,3.637,3.637,0,0,1,1.84-.483A4.2,4.2,0,0,1,74.83,11.2a5.8,5.8,0,0,1,1.336,3.984,6.352,6.352,0,0,1-1.436,4.33,4.532,4.532,0,0,1-3.557,1.646,4.135,4.135,0,0,1-1.828-.4,5.822,5.822,0,0,1-1.687-1.347,12.2,12.2,0,0,1-1.289,1.745L65.9,21a11.849,11.849,0,0,0,.328-2.812V5.777a1.1,1.1,0,0,0-.4-.9,1.769,1.769,0,0,0-1.143-.328h-.492V3.668Zm2.953,7.266a2.549,2.549,0,0,0-2.156,1.153,6.673,6.673,0,0,0-.832,3.81,6.13,6.13,0,0,0,.82,3.617A2.562,2.562,0,0,0,71.115,20.4a2.221,2.221,0,0,0,1.922-1.077,6.913,6.913,0,0,0,.914-3.875,6.282,6.282,0,0,0-.8-3.6A2.4,2.4,0,0,0,71.138,10.734Z" transform="translate(-17.008 -0.336)"/>
      <path class="cls-3" d="M79.458,16.863a6.436,6.436,0,0,0,1.67,2.807,3.531,3.531,0,0,0,2.326.779,3.044,3.044,0,0,0,1.963-.557A1.742,1.742,0,0,0,86.1,18.48a1.487,1.487,0,0,0-.252-.861,1.515,1.515,0,0,0-.7-.551,16.716,16.716,0,0,0-2.313-.533,9.526,9.526,0,0,1-2.488-.738,2.793,2.793,0,0,1-1.1-1.066,2.9,2.9,0,0,1-.393-1.477,3.365,3.365,0,0,1,.81-2.191,3.592,3.592,0,0,1,2.922-1.254,4.369,4.369,0,0,1,2.652.9l.775-.82H86.5l.305,3.914h-.785a4.949,4.949,0,0,0-1.4-2.4,3.282,3.282,0,0,0-2.172-.732,2.6,2.6,0,0,0-1.75.545,1.69,1.69,0,0,0-.634,1.33,1.4,1.4,0,0,0,.587,1.148,5.134,5.134,0,0,0,2.254.74,16.892,16.892,0,0,1,2.536.553,3.083,3.083,0,0,1,1.49,1.083,2.972,2.972,0,0,1,.528,1.786,3.155,3.155,0,0,1-1.144,2.459,4.233,4.233,0,0,1-2.9,1.007,4.855,4.855,0,0,1-3.028-1.078l-.856.984h-.622l-.235-4.371Z" transform="translate(-17.008 -0.336)"/>
      <path class="cls-3" d="M92.138,5.543h.785V10.02h3.551V11.1H92.923v7.043a2.038,2.038,0,0,0,.434,1.4,1.411,1.411,0,0,0,1.1.486,1.665,1.665,0,0,0,1.359-.738,4.512,4.512,0,0,0,.656-2.437h.785a5.106,5.106,0,0,1-1,3.252,3.04,3.04,0,0,1-2.4,1.061,2.927,2.927,0,0,1-2.127-.744,2.6,2.6,0,0,1-.768-1.951V11.1h-1.91v-.82a3.071,3.071,0,0,0,1.988-1.09A6.179,6.179,0,0,0,92.138,5.543Z" transform="translate(-17.008 -0.336)"/>
      <path class="cls-3" d="M110.185,19.793l.422.656a2.6,2.6,0,0,1-1.9.879,2.087,2.087,0,0,1-1.342-.434,3.49,3.49,0,0,1-.955-1.523,7.046,7.046,0,0,1-1.957,1.564,4.776,4.776,0,0,1-2.027.393,3.941,3.941,0,0,1-2.566-.727,2.309,2.309,0,0,1-.879-1.863,3.287,3.287,0,0,1,2.01-2.842,14.2,14.2,0,0,1,5.35-1.506V12.727a1.965,1.965,0,0,0-.715-1.523,2.639,2.639,0,0,0-1.816-.633,3.485,3.485,0,0,0-1.758.422q-.527.316-.527.621a1.146,1.146,0,0,0,.281.551,1.482,1.482,0,0,1,.34.832,1.155,1.155,0,0,1-.34.861,1.216,1.216,0,0,1-.891.334,1.318,1.318,0,0,1-.979-.4,1.392,1.392,0,0,1-.393-1.02,2.678,2.678,0,0,1,1.307-2.121,5.648,5.648,0,0,1,3.428-.961,4.617,4.617,0,0,1,2.988.844,2.606,2.606,0,0,1,1.031,2.074v6a2.1,2.1,0,0,0,.258,1.172.775.775,0,0,0,.668.387A1.631,1.631,0,0,0,110.185,19.793Zm-3.844-4.629a9.5,9.5,0,0,0-4.219,1.336,2.355,2.355,0,0,0-.926,1.992,1.977,1.977,0,0,0,.48,1.412,1.644,1.644,0,0,0,1.254.51,3.224,3.224,0,0,0,2.4-1.049,3.634,3.634,0,0,0,1.014-2.631Z" transform="translate(-17.008 -0.336)"/>
      <path class="cls-3" d="M120.322,17.742l.762.223q-.914,3.363-4.031,3.363a4.956,4.956,0,0,1-3.738-1.512,5.556,5.556,0,0,1-1.453-4.02,6.106,6.106,0,0,1,1.594-4.506,5.122,5.122,0,0,1,3.75-1.6,4,4,0,0,1,2.672.891,2.574,2.574,0,0,1,1.055,1.98,1.541,1.541,0,0,1-.393,1.084,1.251,1.251,0,0,1-1.822.066,1.193,1.193,0,0,1-.363-.876,1.5,1.5,0,0,1,.4-.981.637.637,0,0,0,.188-.351.866.866,0,0,0-.457-.66,2.124,2.124,0,0,0-1.242-.321,2.488,2.488,0,0,0-2.168,1.042,6.817,6.817,0,0,0-1.055,3.98,5.749,5.749,0,0,0,.938,3.564,2.9,2.9,0,0,0,2.391,1.211Q119.349,20.32,120.322,17.742Z" transform="translate(-17.008 -0.336)"/>
      <path class="cls-3" d="M126.732,3.469V19.383a.636.636,0,0,0,.2.5,1.108,1.108,0,0,0,.715.234h1.16V21h-6.223v-.879h1.1a1.108,1.108,0,0,0,.8-.258.97.97,0,0,0,.264-.727V5.777a1.064,1.064,0,0,0-.316-.855,1.573,1.573,0,0,0-1.066-.375h-.984V3.668Z" transform="translate(-17.008 -0.336)"/>
      <path class="cls-3" d="M140.443,15.586H132.58a5.719,5.719,0,0,0,.938,3.539,3.249,3.249,0,0,0,2.566,1.16q2.3,0,3.691-2.613l.762.328a5.36,5.36,0,0,1-4.945,3.328,4.9,4.9,0,0,1-3.709-1.594,5.7,5.7,0,0,1-1.506-4.078,6.208,6.208,0,0,1,1.482-4.318,4.72,4.72,0,0,1,3.65-1.646,4.646,4.646,0,0,1,2.754.82,4.95,4.95,0,0,1,1.746,2.355A8.05,8.05,0,0,1,140.443,15.586Zm-7.863-.832h4.758a.8.8,0,0,0,.656-.287,1.57,1.57,0,0,0,.234-.979,3.181,3.181,0,0,0-.8-2.191,2.458,2.458,0,0,0-1.893-.9,2.544,2.544,0,0,0-2.068,1.09A5.412,5.412,0,0,0,132.58,14.754Z" transform="translate(-17.008 -0.336)"/>
      <path class="cls-3" d="M143.466,16.863a6.436,6.436,0,0,0,1.67,2.807,3.531,3.531,0,0,0,2.326.779,3.044,3.044,0,0,0,1.963-.557,1.742,1.742,0,0,0,.686-1.412,1.487,1.487,0,0,0-.252-.861,1.515,1.515,0,0,0-.7-.551,16.716,16.716,0,0,0-2.313-.533,9.526,9.526,0,0,1-2.488-.738,2.793,2.793,0,0,1-1.1-1.066,2.9,2.9,0,0,1-.393-1.477,3.365,3.365,0,0,1,.81-2.191A3.592,3.592,0,0,1,146.6,9.809a4.369,4.369,0,0,1,2.652.9l.775-.82h.481l.305,3.914h-.785a4.949,4.949,0,0,0-1.4-2.4,3.282,3.282,0,0,0-2.172-.732,2.6,2.6,0,0,0-1.75.545,1.69,1.69,0,0,0-.634,1.33,1.4,1.4,0,0,0,.587,1.148,5.134,5.134,0,0,0,2.254.74,16.892,16.892,0,0,1,2.536.553,3.083,3.083,0,0,1,1.49,1.083,2.972,2.972,0,0,1,.528,1.786,3.155,3.155,0,0,1-1.144,2.459,4.233,4.233,0,0,1-2.9,1.007,4.855,4.855,0,0,1-3.028-1.078l-.856.984h-.622l-.235-4.371Z" transform="translate(-17.008 -0.336)"/>
      <path class="cls-3" d="M160.271,3.668h9.035a6.23,6.23,0,0,1,4.072,1.171,3.661,3.661,0,0,1,1.412,2.938,3.492,3.492,0,0,1-.984,2.505,6.7,6.7,0,0,1-2.965,1.627,7.813,7.813,0,0,1,3.674,1.625,3.611,3.611,0,0,1,1.225,2.8,3.891,3.891,0,0,1-.7,2.287,5.255,5.255,0,0,1-2.32,1.689,9.315,9.315,0,0,1-3.686.692h-8.766v-.879h1.43a1.66,1.66,0,0,0,.943-.211.593.593,0,0,0,.3-.48V5.543a.928.928,0,0,0-.293-.744,1.278,1.278,0,0,0-.855-.252h-1.523Zm5.18,7.957h3.281a3.269,3.269,0,0,0,2.408-.889,3.985,3.985,0,0,0,.9-2.913,3.757,3.757,0,0,0-.428-1.954,2.467,2.467,0,0,0-1.242-1.024,8.555,8.555,0,0,0-2.818-.322,4.41,4.41,0,0,0-1.758.2.771.771,0,0,0-.34.72Zm0,.879v6.68a.872.872,0,0,0,.275.7,1.563,1.563,0,0,0,.99.234h2.1a4.425,4.425,0,0,0,3.082-.92,3.724,3.724,0,0,0,1-2.865,3.78,3.78,0,0,0-1.031-2.807,3.861,3.861,0,0,0-2.848-1.025Z" transform="translate(-17.008 -0.336)"/>
      <path class="cls-3" d="M177.005,10.02h5.262v.8h-.492a1.725,1.725,0,0,0-.943.182.6.6,0,0,0-.252.521.722.722,0,0,0,.07.3l3.059,6.6,2.273-5.473a2.953,2.953,0,0,0,.246-1.148.778.778,0,0,0-.34-.674,2.956,2.956,0,0,0-1.359-.311v-.8h4.57v.8A1.981,1.981,0,0,0,187.318,12l-4.062,9.451a9.324,9.324,0,0,1-2.078,3.311,3.4,3.4,0,0,1-2.262.914,2.029,2.029,0,0,1-1.412-.48,1.531,1.531,0,0,1-.533-1.184,1.2,1.2,0,0,1,.328-.867,1.093,1.093,0,0,1,.82-.34,1.041,1.041,0,0,1,.75.293.941.941,0,0,1,.3.7,1.814,1.814,0,0,1-.047.352,1.131,1.131,0,0,0-.047.258q0,.281.363.281a1.787,1.787,0,0,0,.873-.281,2.88,2.88,0,0,0,.908-.9,29.4,29.4,0,0,0,1.479-2.752l-4.167-8.932a1.7,1.7,0,0,0-.555-.7,2.238,2.238,0,0,0-.976-.311Z" transform="translate(-17.008 -0.336)"/>
      <path class="cls-3" d="M203.087,3.3h.785l6.215,15.855a1.484,1.484,0,0,0,1.535.961h.539V21h-6.914v-.879h.551a3.534,3.534,0,0,0,1.523-.234.537.537,0,0,0,.3-.5,1.221,1.221,0,0,0-.082-.422l-1.434-3.68h-6.855l-.8,2.109a4.089,4.089,0,0,0-.316,1.336,1.212,1.212,0,0,0,.533.984,2.511,2.511,0,0,0,1.553.41h.586V21h-6.281v-.879a2.6,2.6,0,0,0,1.593-.439,3.864,3.864,0,0,0,1.078-1.67Zm-.342,3.34-3.112,7.723h6.121Z" transform="translate(-17.008 -0.336)"/>
      <path class="cls-3" d="M216.966,3.469V19.383a.636.636,0,0,0,.2.5,1.108,1.108,0,0,0,.715.234h1.16V21h-6.223v-.879h1.1a1.108,1.108,0,0,0,.8-.258.97.97,0,0,0,.264-.727V5.777a1.064,1.064,0,0,0-.316-.855,1.573,1.573,0,0,0-1.066-.375h-.984V3.668Z" transform="translate(-17.008 -0.336)"/>
      <path class="cls-3" d="M231.978,19.793l.422.656a2.6,2.6,0,0,1-1.9.879,2.087,2.087,0,0,1-1.342-.434,3.49,3.49,0,0,1-.955-1.523,7.046,7.046,0,0,1-1.957,1.564,4.776,4.776,0,0,1-2.027.393,3.941,3.941,0,0,1-2.566-.727,2.309,2.309,0,0,1-.879-1.863,3.287,3.287,0,0,1,2.01-2.842,14.2,14.2,0,0,1,5.35-1.506V12.727a1.965,1.965,0,0,0-.715-1.523,2.639,2.639,0,0,0-1.816-.633,3.485,3.485,0,0,0-1.758.422q-.527.316-.527.621a1.146,1.146,0,0,0,.281.551,1.482,1.482,0,0,1,.34.832,1.155,1.155,0,0,1-.34.861,1.216,1.216,0,0,1-.891.334,1.318,1.318,0,0,1-.979-.4,1.392,1.392,0,0,1-.393-1.02,2.678,2.678,0,0,1,1.307-2.121,5.648,5.648,0,0,1,3.428-.961,4.617,4.617,0,0,1,2.988.844,2.606,2.606,0,0,1,1.031,2.074v6a2.1,2.1,0,0,0,.258,1.172.775.775,0,0,0,.668.387A1.631,1.631,0,0,0,231.978,19.793Zm-3.844-4.629a9.5,9.5,0,0,0-4.219,1.336,2.355,2.355,0,0,0-.926,1.992,1.977,1.977,0,0,0,.48,1.412,1.644,1.644,0,0,0,1.254.51,3.224,3.224,0,0,0,2.4-1.049,3.634,3.634,0,0,0,1.014-2.631Z" transform="translate(-17.008 -0.336)"/>
      <path class="cls-3" d="M233.724,10.02l3.645-.223a18.09,18.09,0,0,1,.328,2.414,5.219,5.219,0,0,1,1.74-1.793,4.341,4.341,0,0,1,2.268-.6,3.6,3.6,0,0,1,1.828.428,3.009,3.009,0,0,1,1.184,1.354,4.724,4.724,0,0,1,.445,2.074V19.02a1.125,1.125,0,0,0,.27.85,1.3,1.3,0,0,0,.9.252h.773V21h-5.789v-.879h.551a1.763,1.763,0,0,0,1.078-.246.893.893,0,0,0,.3-.738v-4.7a4.331,4.331,0,0,0-.469-2.273,2.188,2.188,0,0,0-1.992-1.055,2.756,2.756,0,0,0-2.209,1.066,4.206,4.206,0,0,0-.885,2.777V19.02a1.11,1.11,0,0,0,.275.85,1.329,1.329,0,0,0,.908.252h.762V21H233.83v-.879h.762a1.393,1.393,0,0,0,.873-.234.717.717,0,0,0,.3-.586v-7.09a1.406,1.406,0,0,0-.381-1.066,1.527,1.527,0,0,0-1.1-.363h-.562Z" transform="translate(-17.008 -0.336)"/>
      <path class="cls-3" d="M267.757,5.038l.959-1.733h.785l.434,6.914h-.762A11.376,11.376,0,0,0,267.1,5.9a4.582,4.582,0,0,0-3.488-1.7,4.532,4.532,0,0,0-2.7.855,5.333,5.333,0,0,0-1.832,2.564,14.3,14.3,0,0,0-.638,4.813,13.837,13.837,0,0,0,.638,4.708,5.21,5.21,0,0,0,1.762,2.5,4.415,4.415,0,0,0,2.633.8,4.216,4.216,0,0,0,3.166-1.148,4.073,4.073,0,0,0,1.118-2.965V14.707a.688.688,0,0,0-.3-.6,1.74,1.74,0,0,0-.979-.211h-1.465v-.82h7.266v.82h-.984a1.5,1.5,0,0,0-.937.229.8.8,0,0,0-.281.662V21.41H269.3q-.422-1.547-.879-2.965a6.185,6.185,0,0,1-2.092,2.162,5.276,5.276,0,0,1-2.748.721,7.732,7.732,0,0,1-4.061-1.125,7.959,7.959,0,0,1-2.953-3.17,9.717,9.717,0,0,1-1.084-4.623,9.734,9.734,0,0,1,1.09-4.641,8.537,8.537,0,0,1,2.983-3.258A7.054,7.054,0,0,1,263.385,3.3a6.015,6.015,0,0,1,2.1.371A8.833,8.833,0,0,1,267.757,5.038Z" transform="translate(-17.008 -0.336)"/>
      <path class="cls-3" d="M285.322,19.793l.422.656a2.6,2.6,0,0,1-1.9.879,2.087,2.087,0,0,1-1.342-.434,3.49,3.49,0,0,1-.955-1.523,7.046,7.046,0,0,1-1.957,1.564,4.776,4.776,0,0,1-2.027.393A3.941,3.941,0,0,1,275,20.6a2.309,2.309,0,0,1-.879-1.863,3.287,3.287,0,0,1,2.01-2.842,14.2,14.2,0,0,1,5.35-1.506V12.727a1.965,1.965,0,0,0-.715-1.523,2.639,2.639,0,0,0-1.816-.633,3.485,3.485,0,0,0-1.758.422q-.527.316-.527.621a1.146,1.146,0,0,0,.281.551,1.482,1.482,0,0,1,.34.832,1.155,1.155,0,0,1-.34.861,1.216,1.216,0,0,1-.891.334,1.318,1.318,0,0,1-.979-.4,1.392,1.392,0,0,1-.393-1.02,2.678,2.678,0,0,1,1.307-2.121,5.648,5.648,0,0,1,3.428-.961,4.617,4.617,0,0,1,2.988.844,2.606,2.606,0,0,1,1.031,2.074v6a2.1,2.1,0,0,0,.258,1.172.775.775,0,0,0,.668.387A1.631,1.631,0,0,0,285.322,19.793Zm-3.844-4.629a9.5,9.5,0,0,0-4.219,1.336,2.355,2.355,0,0,0-.926,1.992,1.977,1.977,0,0,0,.48,1.412,1.644,1.644,0,0,0,1.254.51,3.224,3.224,0,0,0,2.4-1.049,3.634,3.634,0,0,0,1.014-2.631Z" transform="translate(-17.008 -0.336)"/>
      <path class="cls-3" d="M286.892,10.02l3.949-.2v4.441a9.753,9.753,0,0,1,1.523-3.316,2.711,2.711,0,0,1,2.2-1.125,1.9,1.9,0,0,1,1.424.545,2,2,0,0,1,.533,1.459,1.692,1.692,0,0,1-.357,1.148,1.139,1.139,0,0,1-.9.41,1.1,1.1,0,0,1-.85-.352,1.35,1.35,0,0,1-.322-.949,1.481,1.481,0,0,1,.188-.727,1.386,1.386,0,0,0,.176-.363q0-.176-.223-.176a1.725,1.725,0,0,0-1.09.563,5.065,5.065,0,0,0-1.3,2.156,11.585,11.585,0,0,0-.7,3.41V19.3a.715.715,0,0,0,.281.609,1.648,1.648,0,0,0,.961.211h1.395V21h-6.82v-.879h1.09a1.347,1.347,0,0,0,.832-.217.642.642,0,0,0,.281-.521v-7a1.684,1.684,0,0,0-.34-1.166,1.256,1.256,0,0,0-.973-.369h-.961Z" transform="translate(-17.008 -0.336)"/>
      <path class="cls-3" d="M306.111,17.742l.762.223q-.914,3.363-4.031,3.363a4.956,4.956,0,0,1-3.738-1.512,5.556,5.556,0,0,1-1.453-4.02,6.106,6.106,0,0,1,1.594-4.506,5.122,5.122,0,0,1,3.75-1.6,4,4,0,0,1,2.672.891,2.574,2.574,0,0,1,1.055,1.98,1.541,1.541,0,0,1-.393,1.084,1.251,1.251,0,0,1-1.822.066,1.193,1.193,0,0,1-.363-.876,1.5,1.5,0,0,1,.4-.981.637.637,0,0,0,.188-.351.866.866,0,0,0-.457-.66,2.124,2.124,0,0,0-1.242-.321,2.488,2.488,0,0,0-2.168,1.042,6.817,6.817,0,0,0-1.055,3.98,5.749,5.749,0,0,0,.938,3.564,2.9,2.9,0,0,0,2.391,1.211Q305.138,20.32,306.111,17.742Z" transform="translate(-17.008 -0.336)"/>
      <path class="cls-3" d="M308.162,10.02l4.371-.129v9.445a.7.7,0,0,0,.188.551,1,1,0,0,0,.68.234h1.242V21H308.4v-.879h1.16a1,1,0,0,0,.756-.252,1.022,1.022,0,0,0,.24-.732V12.223a1.257,1.257,0,0,0-.375-.99,1.628,1.628,0,0,0-1.113-.334h-.9Zm3.047-6.551a1.27,1.27,0,0,1,.926.4,1.283,1.283,0,0,1,.4.938,1.25,1.25,0,0,1-.387.914,1.324,1.324,0,0,1-2.25-.926,1.27,1.27,0,0,1,.4-.926A1.257,1.257,0,0,1,311.208,3.469Z" transform="translate(-17.008 -0.336)"/>
      <path class="cls-3" d="M327.533,19.793l.422.656a2.6,2.6,0,0,1-1.9.879,2.087,2.087,0,0,1-1.342-.434,3.49,3.49,0,0,1-.955-1.523,7.046,7.046,0,0,1-1.957,1.564,4.776,4.776,0,0,1-2.027.393,3.941,3.941,0,0,1-2.566-.727,2.309,2.309,0,0,1-.879-1.863,3.287,3.287,0,0,1,2.01-2.842,14.2,14.2,0,0,1,5.35-1.506V12.727a1.965,1.965,0,0,0-.715-1.523,2.639,2.639,0,0,0-1.816-.633,3.485,3.485,0,0,0-1.758.422q-.527.316-.527.621a1.146,1.146,0,0,0,.281.551,1.482,1.482,0,0,1,.34.832,1.155,1.155,0,0,1-.34.861,1.216,1.216,0,0,1-.891.334,1.318,1.318,0,0,1-.979-.4,1.392,1.392,0,0,1-.393-1.02,2.678,2.678,0,0,1,1.307-2.121,5.648,5.648,0,0,1,3.428-.961,4.617,4.617,0,0,1,2.988.844,2.606,2.606,0,0,1,1.031,2.074v6a2.1,2.1,0,0,0,.258,1.172.775.775,0,0,0,.668.387A1.631,1.631,0,0,0,327.533,19.793Zm-3.844-4.629A9.5,9.5,0,0,0,319.47,16.5a2.355,2.355,0,0,0-.926,1.992,1.977,1.977,0,0,0,.48,1.412,1.644,1.644,0,0,0,1.254.51,3.224,3.224,0,0,0,2.4-1.049,3.634,3.634,0,0,0,1.014-2.631Z" transform="translate(-17.008 -0.336)"/>
    </g>
    <g>
      <path class="cls-3" d="M60.967,58.334H75.041l.34,6.551h-.809q-.8-5.777-4.181-5.777a1.392,1.392,0,0,0-.934.234,1.013,1.013,0,0,0-.253.773V73.967a.752.752,0,0,0,.246.621,1.292,1.292,0,0,0,.809.2h1.746v.879H63.955v-.879h1.992a.855.855,0,0,0,.609-.2.691.691,0,0,0,.211-.527V60.01a.834.834,0,0,0-.27-.674,1.332,1.332,0,0,0-.867-.229,3.375,3.375,0,0,0-2.836,1.605,9.819,9.819,0,0,0-1.348,4.172h-.855Z" transform="translate(-17.008 -0.336)"/>
      <path class="cls-3" d="M79.682,64.358a4.906,4.906,0,0,1,3.721,1.6,5.9,5.9,0,0,1,1.506,4.213,6.494,6.494,0,0,1-.674,3.076,5.033,5.033,0,0,1-1.922,2.01,5.192,5.192,0,0,1-2.689.738,4.72,4.72,0,0,1-3.615-1.617,6.684,6.684,0,0,1,.006-8.4A4.788,4.788,0,0,1,79.682,64.358Zm0,.832a2.548,2.548,0,0,0-2.156,1.189,6.584,6.584,0,0,0-.844,3.756,6.818,6.818,0,0,0,.838,3.82,2.534,2.534,0,0,0,2.162,1.207A2.6,2.6,0,0,0,81.9,73.956a7.036,7.036,0,0,0,.85-3.949,6.3,6.3,0,0,0-.838-3.68A2.638,2.638,0,0,0,79.682,65.19Z" transform="translate(-17.008 -0.336)"/>
      <path class="cls-3" d="M86.279,64.686h5.3v.809q-1.288.047-1.287.456a.9.9,0,0,0,.211.48l1.892,2.51,1.856-2.321a.817.817,0,0,0,.2-.492q0-.5-1.418-.633v-.809h4.629v.809A3.892,3.892,0,0,0,95.1,66.9l-2.16,2.7,3.392,4.4a2.02,2.02,0,0,0,.738.615,2.937,2.937,0,0,0,1.172.182v.879H92.631v-.879h.4a2.411,2.411,0,0,0,.914-.129q.188-.094.188-.234a.955.955,0,0,0-.223-.434l-2.2-2.909-1.768,2.269a1.412,1.412,0,0,0-.375.771.486.486,0,0,0,.258.444,2.663,2.663,0,0,0,1.224.222v.879h-4.77v-.879a3.221,3.221,0,0,0,1.336-.363A5.538,5.538,0,0,0,89.01,73.17L91.191,70.4l-3.225-4.172a2.077,2.077,0,0,0-1.687-.738Z" transform="translate(-17.008 -0.336)"/>
      <path class="cls-3" d="M99.182,64.686l4.371-.129V74a.7.7,0,0,0,.188.551,1,1,0,0,0,.68.234h1.242v.879H99.416v-.879h1.16a1,1,0,0,0,.756-.252,1.022,1.022,0,0,0,.24-.732V66.889a1.257,1.257,0,0,0-.375-.99,1.628,1.628,0,0,0-1.113-.334h-.9Zm3.047-6.551a1.27,1.27,0,0,1,.926.4,1.283,1.283,0,0,1,.4.938,1.25,1.25,0,0,1-.387.914,1.309,1.309,0,1,1-.937-2.25Z" transform="translate(-17.008 -0.336)"/>
      <path class="cls-3" d="M115.342,72.409l.762.223q-.914,3.363-4.031,3.363a4.956,4.956,0,0,1-3.738-1.512,5.556,5.556,0,0,1-1.453-4.02,6.106,6.106,0,0,1,1.594-4.506,5.122,5.122,0,0,1,3.75-1.6,4,4,0,0,1,2.672.891,2.574,2.574,0,0,1,1.055,1.98,1.541,1.541,0,0,1-.393,1.084,1.251,1.251,0,0,1-1.822.066,1.193,1.193,0,0,1-.363-.876,1.5,1.5,0,0,1,.4-.981.637.637,0,0,0,.188-.351.866.866,0,0,0-.457-.66,2.124,2.124,0,0,0-1.242-.321,2.488,2.488,0,0,0-2.168,1.042,6.817,6.817,0,0,0-1.055,3.98,5.749,5.749,0,0,0,.938,3.564,2.9,2.9,0,0,0,2.391,1.211Q114.369,74.987,115.342,72.409Z" transform="translate(-17.008 -0.336)"/>
      <path class="cls-3" d="M124.236,58.334h8.039v.879h-1.922a.864.864,0,0,0-.674.24,1.106,1.106,0,0,0-.217.756V73.885a.814.814,0,0,0,.275.7,2.022,2.022,0,0,0,1.105.205h2.435a4.2,4.2,0,0,0,3.178-1.295,8.757,8.757,0,0,0,1.8-4.494h.82l-.4,6.668H124.236v-.879h1.418a1.482,1.482,0,0,0,1.02-.275,1.166,1.166,0,0,0,.293-.885V60.092a.84.84,0,0,0-.246-.656,1.05,1.05,0,0,0-.727-.223h-1.758Z" transform="translate(-17.008 -0.336)"/>
      <path class="cls-3" d="M140.068,64.686l4.371-.129V74a.7.7,0,0,0,.188.551,1,1,0,0,0,.68.234h1.242v.879H140.3v-.879h1.16a1,1,0,0,0,.756-.252,1.022,1.022,0,0,0,.24-.732V66.889a1.257,1.257,0,0,0-.375-.99,1.628,1.628,0,0,0-1.113-.334h-.9Zm3.047-6.551a1.27,1.27,0,0,1,.926.4,1.283,1.283,0,0,1,.4.938,1.25,1.25,0,0,1-.387.914,1.309,1.309,0,1,1-.937-2.25Z" transform="translate(-17.008 -0.336)"/>
      <path class="cls-3" d="M156.9,66.268a11.464,11.464,0,0,1,1.324-1.781l.41.2a12.871,12.871,0,0,0-.328,2.977V78.221a1.078,1.078,0,0,0,.246.832,1.519,1.519,0,0,0,1.031.293h.469v.832h-5.754v-.832h.773a1.462,1.462,0,0,0,1-.27,1.112,1.112,0,0,0,.293-.855V74.049a4.946,4.946,0,0,1-1.535,1.459,3.62,3.62,0,0,1-1.84.486,4.208,4.208,0,0,1-3.293-1.611,6.015,6.015,0,0,1-1.383-4.061,6.5,6.5,0,0,1,.7-3.012,5.221,5.221,0,0,1,1.857-2.1,4.531,4.531,0,0,1,2.455-.727,4.121,4.121,0,0,1,1.781.4A6.406,6.406,0,0,1,156.9,66.268Zm-3.422-1a2.419,2.419,0,0,0-2.045,1.172,6.494,6.494,0,0,0-.814,3.656,6.416,6.416,0,0,0,.814,3.668,2.416,2.416,0,0,0,2.021,1.137,2.475,2.475,0,0,0,1.471-.492,3.189,3.189,0,0,0,1.072-1.482,7.5,7.5,0,0,0,.387-2.666,9.452,9.452,0,0,0-.352-2.959,3.078,3.078,0,0,0-1.055-1.518A2.491,2.491,0,0,0,153.475,65.272Z" transform="translate(-17.008 -0.336)"/>
      <path class="cls-3" d="M164.947,64.487v7.277a2.926,2.926,0,0,0,.673,2.063,2.259,2.259,0,0,0,1.736.727,2.843,2.843,0,0,0,2.228-1.061,3.91,3.91,0,0,0,.918-2.654V66.725a1.037,1.037,0,0,0-.4-.873,2.869,2.869,0,0,0-1.553-.346v-.82l3.855-.2V73.5a1.255,1.255,0,0,0,.352.955,1.372,1.372,0,0,0,.984.334h.691v.785l-3.691.082L170.5,73.5a7.957,7.957,0,0,1-1.978,1.746,3.927,3.927,0,0,1-2.012.586,3.4,3.4,0,0,1-2.492-1A4.523,4.523,0,0,1,163,71.495v-4.77a1.075,1.075,0,0,0-.5-.961,3.046,3.046,0,0,0-1.441-.258v-.82Z" transform="translate(-17.008 -0.336)"/>
      <path class="cls-3" d="M175.635,64.686l4.371-.129V74a.7.7,0,0,0,.188.551,1,1,0,0,0,.68.234h1.242v.879h-6.246v-.879h1.16a1,1,0,0,0,.756-.252,1.022,1.022,0,0,0,.24-.732V66.889a1.257,1.257,0,0,0-.375-.99,1.628,1.628,0,0,0-1.113-.334h-.9Zm3.047-6.551a1.27,1.27,0,0,1,.926.4,1.283,1.283,0,0,1,.4.938,1.25,1.25,0,0,1-.387.914,1.309,1.309,0,1,1-.937-2.25Z" transform="translate(-17.008 -0.336)"/>
      <path class="cls-3" d="M189.627,58.334l4.289-.2V73.159a1.876,1.876,0,0,0,.334,1.254,1.273,1.273,0,0,0,1,.375h.762v.879h-3.75l-.281-2.238a5.118,5.118,0,0,1-1.564,1.8,3.518,3.518,0,0,1-2.01.6,4.031,4.031,0,0,1-3.193-1.57,6.238,6.238,0,0,1-1.318-4.148,5.972,5.972,0,0,1,1.688-4.453,4.224,4.224,0,0,1,3.047-1.3,3.479,3.479,0,0,1,1.893.527,4.507,4.507,0,0,1,1.459,1.594v-6.2a.924.924,0,0,0-.381-.779,1.982,1.982,0,0,0-1.189-.287h-.785Zm-.68,7a2.344,2.344,0,0,0-2.01,1.043,6.252,6.252,0,0,0-.744,3.516,6.917,6.917,0,0,0,.762,3.779,2.3,2.3,0,0,0,1.957,1.1A2.662,2.662,0,0,0,191.1,73.54a5.955,5.955,0,0,0,.908-3.58,5.657,5.657,0,0,0-.973-3.5A2.526,2.526,0,0,0,188.947,65.331Z" transform="translate(-17.008 -0.336)"/>
    </g>
    <g>
      <path class="cls-3" d="M381.1,63.647l1.055-1.512h.855l.07,6.316H382.3a8.552,8.552,0,0,0-2.15-4.242,4.647,4.647,0,0,0-3.275-1.336,3.545,3.545,0,0,0-2.531.927,2.99,2.99,0,0,0-.984,2.264,2.8,2.8,0,0,0,.375,1.46,2.762,2.762,0,0,0,1.119,1.02,12.45,12.45,0,0,0,2.807.836,16.458,16.458,0,0,1,4.062,1.274,4.183,4.183,0,0,1,2.314,3.914,5.205,5.205,0,0,1-1.576,3.885,5.579,5.579,0,0,1-4.072,1.541,6.852,6.852,0,0,1-4.664-1.734L372.4,79.877h-.844V73.163h.844a7.632,7.632,0,0,0,2.2,4.383,5.492,5.492,0,0,0,3.855,1.605,3.976,3.976,0,0,0,2.83-1.025,3.284,3.284,0,0,0,1.1-2.49,2.6,2.6,0,0,0-.41-1.459,3.107,3.107,0,0,0-1.3-1.055,20.1,20.1,0,0,0-3.5-1.037,10.506,10.506,0,0,1-3.914-1.523,4.123,4.123,0,0,1-1.465-3.387,5,5,0,0,1,5.191-5.2,5.622,5.622,0,0,1,2.074.387A7.321,7.321,0,0,1,381.1,63.647Z" transform="translate(-17.008 -0.336)"/>
      <path class="cls-3" d="M389.382,68.487a14.408,14.408,0,0,1,.306,2.367,5.473,5.473,0,0,1,1.7-1.828,3.677,3.677,0,0,1,1.942-.539,3.779,3.779,0,0,1,2.147.691,4.936,4.936,0,0,1,1.662,2.027,6.9,6.9,0,0,1,.638,3.012,6.171,6.171,0,0,1-1.566,4.371,4.082,4.082,0,0,1-3.108,1.406,3.391,3.391,0,0,1-1.858-.527,4.784,4.784,0,0,1-1.472-1.57v4.441a.916.916,0,0,0,.246.727,1.277,1.277,0,0,0,.879.281h.809v.832h-5.871v-.832h.809a1.343,1.343,0,0,0,.844-.223.711.711,0,0,0,.281-.586V70.983a1.445,1.445,0,0,0-.387-1.143,2.63,2.63,0,0,0-1.547-.369v-.785Zm3.4,1.066a2.594,2.594,0,0,0-2.158,1.23,6.067,6.067,0,0,0-.883,3.563,5.76,5.76,0,0,0,.854,3.48,2.621,2.621,0,0,0,2.176,1.125,2.18,2.18,0,0,0,1.906-.961,6.63,6.63,0,0,0,.854-3.7,6.5,6.5,0,0,0-.772-3.645A2.333,2.333,0,0,0,392.787,69.553Z" transform="translate(-17.008 -0.336)"/>
      <path class="cls-3" d="M399.473,68.686l4.371-.129V78a.7.7,0,0,0,.188.551,1,1,0,0,0,.68.234h1.242v.879h-6.246v-.879h1.16a1,1,0,0,0,.756-.252,1.022,1.022,0,0,0,.24-.732V70.889a1.257,1.257,0,0,0-.375-.99,1.628,1.628,0,0,0-1.113-.334h-.9Zm3.047-6.551a1.27,1.27,0,0,1,.926.4,1.283,1.283,0,0,1,.4.938,1.25,1.25,0,0,1-.387.914,1.309,1.309,0,1,1-.937-2.25Z" transform="translate(-17.008 -0.336)"/>
      <path class="cls-3" d="M407.055,62.334l4.2-.2V74.124l3.57-3.11a1.224,1.224,0,0,0,.515-.8.5.5,0,0,0-.3-.455,3.659,3.659,0,0,0-1.484-.256v-.82h5.848v.82a4.2,4.2,0,0,0-2.648.914l-2.523,2.233,4.094,5.63a1.52,1.52,0,0,0,1.3.5h.609v.879h-6v-.879h.6a2.253,2.253,0,0,0,.9-.117q.229-.116.229-.281a.562.562,0,0,0-.117-.328l-2.988-4.187-1.593,1.409v2.777a.585.585,0,0,0,.223.5,1.508,1.508,0,0,0,.879.223h.762v.879h-5.895v-.879h.949a1.291,1.291,0,0,0,.867-.246.829.829,0,0,0,.281-.656V64.338a.89.89,0,0,0-.34-.773,2.236,2.236,0,0,0-1.324-.352h-.6Z" transform="translate(-17.008 -0.336)"/>
      <path class="cls-3" d="M431.77,74.252h-7.863a5.719,5.719,0,0,0,.938,3.539,3.249,3.249,0,0,0,2.566,1.16q2.3,0,3.691-2.613l.762.328a5.36,5.36,0,0,1-4.945,3.328,4.9,4.9,0,0,1-3.709-1.594,5.7,5.7,0,0,1-1.506-4.078A6.208,6.208,0,0,1,423.186,70a4.72,4.72,0,0,1,3.65-1.646,4.646,4.646,0,0,1,2.754.82,4.95,4.95,0,0,1,1.746,2.355A8.05,8.05,0,0,1,431.77,74.252Zm-7.863-.832h4.758a.8.8,0,0,0,.656-.287,1.57,1.57,0,0,0,.234-.979,3.181,3.181,0,0,0-.8-2.191,2.458,2.458,0,0,0-1.893-.9,2.544,2.544,0,0,0-2.068,1.09A5.412,5.412,0,0,0,423.906,73.42Z" transform="translate(-17.008 -0.336)"/>
      <path class="cls-3" d="M440.594,62.334h14.1l.234,6h-.809q-.539-3.094-1.512-4.031a4.352,4.352,0,0,0-3.176-1.09h-2.777a.68.68,0,0,0-.785.773v6.27h1.488a2.533,2.533,0,0,0,1.98-.82,3.906,3.906,0,0,0,.8-2.531h.844v7.816h-.844a4.571,4.571,0,0,0-.8-2.777,2.472,2.472,0,0,0-1.98-.832h-1.488v6.609a1.039,1.039,0,0,0,.281.826,1.514,1.514,0,0,0,.973.24h1.8v.879h-8.332v-.879h1.781a1.1,1.1,0,0,0,.768-.217.942.942,0,0,0,.229-.709V64.081a.823.823,0,0,0-.24-.668,1.337,1.337,0,0,0-.838-.2h-1.7Z" transform="translate(-17.008 -0.336)"/>
      <path class="cls-3" d="M467.746,78.459l.422.656a2.6,2.6,0,0,1-1.9.879,2.087,2.087,0,0,1-1.342-.434,3.49,3.49,0,0,1-.955-1.523,7.046,7.046,0,0,1-1.957,1.564,4.776,4.776,0,0,1-2.027.393,3.941,3.941,0,0,1-2.566-.727,2.309,2.309,0,0,1-.879-1.863,3.287,3.287,0,0,1,2.01-2.842,14.2,14.2,0,0,1,5.35-1.506V71.393a1.965,1.965,0,0,0-.715-1.523,2.639,2.639,0,0,0-1.816-.633,3.485,3.485,0,0,0-1.758.422q-.527.316-.527.621a1.146,1.146,0,0,0,.281.551,1.482,1.482,0,0,1,.34.832,1.155,1.155,0,0,1-.34.861,1.216,1.216,0,0,1-.891.334,1.318,1.318,0,0,1-.979-.4,1.392,1.392,0,0,1-.393-1.02,2.678,2.678,0,0,1,1.307-2.121,5.648,5.648,0,0,1,3.428-.961,4.617,4.617,0,0,1,2.988.844,2.606,2.606,0,0,1,1.031,2.074v6a2.1,2.1,0,0,0,.258,1.172.775.775,0,0,0,.668.387A1.631,1.631,0,0,0,467.746,78.459ZM463.9,73.831a9.5,9.5,0,0,0-4.219,1.336,2.355,2.355,0,0,0-.926,1.992,1.977,1.977,0,0,0,.48,1.412,1.644,1.644,0,0,0,1.254.51,3.224,3.224,0,0,0,2.4-1.049A3.634,3.634,0,0,0,463.9,75.4Z" transform="translate(-17.008 -0.336)"/>
      <path class="cls-3" d="M473.641,62.135V78.049a.636.636,0,0,0,.2.5,1.108,1.108,0,0,0,.715.234h1.16v.879h-6.223v-.879h1.1a1.108,1.108,0,0,0,.8-.258.97.97,0,0,0,.264-.727V64.444a1.064,1.064,0,0,0-.316-.855,1.573,1.573,0,0,0-1.066-.375h-.984v-.879Z" transform="translate(-17.008 -0.336)"/>
      <path class="cls-3" d="M481.2,62.135V78.049a.636.636,0,0,0,.2.5,1.108,1.108,0,0,0,.715.234h1.16v.879h-6.223v-.879h1.1a1.108,1.108,0,0,0,.8-.258.97.97,0,0,0,.264-.727V64.444a1.064,1.064,0,0,0-.316-.855,1.573,1.573,0,0,0-1.066-.375h-.984v-.879Z" transform="translate(-17.008 -0.336)"/>
    </g>
    <g>
      <path class="cls-3" d="M721.8,62.334h9.035a6.23,6.23,0,0,1,4.072,1.171,3.661,3.661,0,0,1,1.412,2.938,3.492,3.492,0,0,1-.984,2.505,6.7,6.7,0,0,1-2.965,1.627,7.813,7.813,0,0,1,3.674,1.625,3.611,3.611,0,0,1,1.225,2.8,3.891,3.891,0,0,1-.7,2.287,5.255,5.255,0,0,1-2.32,1.689,9.315,9.315,0,0,1-3.686.692H721.8v-.879h1.43a1.66,1.66,0,0,0,.943-.211.593.593,0,0,0,.3-.48V64.209a.928.928,0,0,0-.293-.744,1.278,1.278,0,0,0-.855-.252H721.8Zm5.18,7.957h3.281a3.269,3.269,0,0,0,2.408-.889,3.985,3.985,0,0,0,.9-2.913,3.757,3.757,0,0,0-.428-1.954,2.467,2.467,0,0,0-1.242-1.024,8.555,8.555,0,0,0-2.818-.322,4.41,4.41,0,0,0-1.758.2.771.771,0,0,0-.34.72Zm0,.879v6.68a.872.872,0,0,0,.275.7,1.563,1.563,0,0,0,.99.234h2.1a4.425,4.425,0,0,0,3.082-.92,3.724,3.724,0,0,0,1-2.865,3.78,3.78,0,0,0-1.031-2.807,3.861,3.861,0,0,0-2.848-1.025Z" transform="translate(-17.008 -0.336)"/>
      <path class="cls-3" d="M738.573,68.686l4.371-.129V78a.7.7,0,0,0,.188.551,1,1,0,0,0,.68.234h1.242v.879h-6.246v-.879h1.16a1,1,0,0,0,.756-.252,1.022,1.022,0,0,0,.24-.732V70.889a1.257,1.257,0,0,0-.375-.99,1.628,1.628,0,0,0-1.113-.334h-.9Zm3.047-6.551a1.27,1.27,0,0,1,.926.4,1.283,1.283,0,0,1,.4.938,1.25,1.25,0,0,1-.387.914,1.309,1.309,0,1,1-.937-2.25Z" transform="translate(-17.008 -0.336)"/>
      <path class="cls-3" d="M749.237,64.209h.785v4.477h3.551v1.078h-3.551v7.043a2.038,2.038,0,0,0,.434,1.4,1.411,1.411,0,0,0,1.1.486,1.665,1.665,0,0,0,1.359-.738,4.512,4.512,0,0,0,.656-2.437h.785a5.106,5.106,0,0,1-1,3.252,3.04,3.04,0,0,1-2.4,1.061,2.927,2.927,0,0,1-2.127-.744,2.6,2.6,0,0,1-.768-1.951V69.764h-1.91v-.82a3.074,3.074,0,0,0,1.988-1.09A6.182,6.182,0,0,0,749.237,64.209Z" transform="translate(-17.008 -0.336)"/>
      <path class="cls-3" d="M765.983,74.252H758.12a5.719,5.719,0,0,0,.938,3.539,3.249,3.249,0,0,0,2.566,1.16q2.3,0,3.691-2.613l.762.328a5.36,5.36,0,0,1-4.945,3.328,4.9,4.9,0,0,1-3.709-1.594,5.7,5.7,0,0,1-1.506-4.078A6.208,6.208,0,0,1,757.4,70a4.72,4.72,0,0,1,3.65-1.646,4.646,4.646,0,0,1,2.754.82,4.95,4.95,0,0,1,1.746,2.355A8.05,8.05,0,0,1,765.983,74.252Zm-7.863-.832h4.758a.8.8,0,0,0,.656-.287,1.57,1.57,0,0,0,.234-.979,3.181,3.181,0,0,0-.8-2.191,2.458,2.458,0,0,0-1.893-.9A2.544,2.544,0,0,0,759,70.151,5.412,5.412,0,0,0,758.12,73.42Z" transform="translate(-17.008 -0.336)"/>
      <path class="cls-3" d="M774.62,62.334h14.074l.34,6.551h-.809q-.8-5.777-4.181-5.777a1.392,1.392,0,0,0-.934.234,1.013,1.013,0,0,0-.253.773V77.967a.752.752,0,0,0,.246.621,1.292,1.292,0,0,0,.809.2h1.746v.879h-8.051v-.879H779.6a.855.855,0,0,0,.609-.2.691.691,0,0,0,.211-.527V64.01a.834.834,0,0,0-.27-.674,1.332,1.332,0,0,0-.867-.229,3.375,3.375,0,0,0-2.836,1.605,9.819,9.819,0,0,0-1.348,4.172h-.855Z" transform="translate(-17.008 -0.336)"/>
      <path class="cls-3" d="M788.694,68.686l3.949-.2v4.441a9.753,9.753,0,0,1,1.523-3.316,2.711,2.711,0,0,1,2.2-1.125,1.9,1.9,0,0,1,1.424.545,2,2,0,0,1,.533,1.459,1.692,1.692,0,0,1-.357,1.148,1.139,1.139,0,0,1-.9.41,1.1,1.1,0,0,1-.85-.352,1.35,1.35,0,0,1-.322-.949,1.481,1.481,0,0,1,.188-.727,1.386,1.386,0,0,0,.176-.363q0-.176-.223-.176a1.725,1.725,0,0,0-1.09.563,5.065,5.065,0,0,0-1.3,2.156,11.585,11.585,0,0,0-.7,3.41v2.355a.715.715,0,0,0,.281.609,1.648,1.648,0,0,0,.961.211h1.395v.879h-6.82v-.879h1.09a1.347,1.347,0,0,0,.832-.217.642.642,0,0,0,.281-.521v-7a1.684,1.684,0,0,0-.34-1.166,1.256,1.256,0,0,0-.973-.369h-.961Z" transform="translate(-17.008 -0.336)"/>
      <path class="cls-3" d="M811.124,78.459l.422.656a2.6,2.6,0,0,1-1.9.879,2.087,2.087,0,0,1-1.342-.434,3.49,3.49,0,0,1-.955-1.523,7.046,7.046,0,0,1-1.957,1.564,4.776,4.776,0,0,1-2.027.393,3.941,3.941,0,0,1-2.566-.727,2.309,2.309,0,0,1-.879-1.863,3.287,3.287,0,0,1,2.01-2.842,14.2,14.2,0,0,1,5.35-1.506V71.393a1.965,1.965,0,0,0-.715-1.523,2.639,2.639,0,0,0-1.816-.633,3.485,3.485,0,0,0-1.758.422q-.527.316-.527.621a1.146,1.146,0,0,0,.281.551,1.482,1.482,0,0,1,.34.832,1.155,1.155,0,0,1-.34.861,1.216,1.216,0,0,1-.891.334,1.318,1.318,0,0,1-.979-.4,1.392,1.392,0,0,1-.393-1.02,2.678,2.678,0,0,1,1.307-2.121,5.648,5.648,0,0,1,3.428-.961,4.617,4.617,0,0,1,2.988.844,2.606,2.606,0,0,1,1.031,2.074v6a2.1,2.1,0,0,0,.258,1.172.775.775,0,0,0,.668.387A1.631,1.631,0,0,0,811.124,78.459Zm-3.844-4.629a9.5,9.5,0,0,0-4.219,1.336,2.355,2.355,0,0,0-.926,1.992,1.977,1.977,0,0,0,.48,1.412,1.644,1.644,0,0,0,1.254.51,3.224,3.224,0,0,0,2.4-1.049A3.634,3.634,0,0,0,807.28,75.4Z" transform="translate(-17.008 -0.336)"/>
      <path class="cls-3" d="M816.35,68.487a14.355,14.355,0,0,1,.306,2.367,5.464,5.464,0,0,1,1.7-1.828,3.677,3.677,0,0,1,1.942-.539,3.778,3.778,0,0,1,2.146.691,4.933,4.933,0,0,1,1.662,2.027,6.91,6.91,0,0,1,.638,3.012,6.175,6.175,0,0,1-1.565,4.371,4.085,4.085,0,0,1-3.108,1.406,3.388,3.388,0,0,1-1.857-.527,4.78,4.78,0,0,1-1.473-1.57v4.441a.916.916,0,0,0,.246.727,1.277,1.277,0,0,0,.879.281h.809v.832H812.8v-.832h.809a1.343,1.343,0,0,0,.844-.223.711.711,0,0,0,.281-.586V70.983a1.445,1.445,0,0,0-.387-1.143,2.63,2.63,0,0,0-1.547-.369v-.785Zm3.405,1.066a2.594,2.594,0,0,0-2.158,1.23,6.064,6.064,0,0,0-.883,3.563,5.757,5.757,0,0,0,.854,3.48,2.622,2.622,0,0,0,2.176,1.125,2.181,2.181,0,0,0,1.906-.961,6.638,6.638,0,0,0,.854-3.7,6.512,6.512,0,0,0-.771-3.645A2.334,2.334,0,0,0,819.755,69.553Z" transform="translate(-17.008 -0.336)"/>
    </g>
    <g>
      <path class="cls-3" d="M130.337,515.191l1.055-1.512h.855l.07,6.316h-.773a8.552,8.552,0,0,0-2.15-4.242,4.647,4.647,0,0,0-3.275-1.336,3.542,3.542,0,0,0-2.531.927,2.99,2.99,0,0,0-.984,2.264,2.793,2.793,0,0,0,.375,1.46,2.759,2.759,0,0,0,1.119,1.021,12.4,12.4,0,0,0,2.807.836,16.475,16.475,0,0,1,4.062,1.274,4.183,4.183,0,0,1,2.314,3.914A5.205,5.205,0,0,1,131.7,530a5.579,5.579,0,0,1-4.072,1.541,6.852,6.852,0,0,1-4.664-1.734l-1.324,1.617H120.8v-6.715h.844a7.632,7.632,0,0,0,2.2,4.383A5.492,5.492,0,0,0,127.7,530.7a3.976,3.976,0,0,0,2.83-1.025,3.284,3.284,0,0,0,1.1-2.49,2.6,2.6,0,0,0-.41-1.459,3.107,3.107,0,0,0-1.3-1.055,20.1,20.1,0,0,0-3.5-1.037,10.506,10.506,0,0,1-3.914-1.523,4.123,4.123,0,0,1-1.465-3.387,5,5,0,0,1,5.191-5.2,5.622,5.622,0,0,1,2.074.387A7.321,7.321,0,0,1,130.337,515.191Z" transform="translate(-17.008 -0.336)"/>
      <path class="cls-3" d="M145.442,525.8h-7.863a5.719,5.719,0,0,0,.938,3.539,3.249,3.249,0,0,0,2.566,1.16q2.3,0,3.691-2.613l.762.328a5.36,5.36,0,0,1-4.945,3.328,4.9,4.9,0,0,1-3.709-1.594,5.7,5.7,0,0,1-1.506-4.078,6.208,6.208,0,0,1,1.482-4.318,4.72,4.72,0,0,1,3.65-1.646,4.646,4.646,0,0,1,2.754.82,4.95,4.95,0,0,1,1.746,2.355A8.05,8.05,0,0,1,145.442,525.8Zm-7.863-.832h4.758a.8.8,0,0,0,.656-.287,1.57,1.57,0,0,0,.234-.979,3.181,3.181,0,0,0-.8-2.191,2.458,2.458,0,0,0-1.893-.9,2.544,2.544,0,0,0-2.068,1.09A5.412,5.412,0,0,0,137.579,524.965Z" transform="translate(-17.008 -0.336)"/>
      <path class="cls-3" d="M147.142,520.23l3.645-.223a18.09,18.09,0,0,1,.328,2.414,5.219,5.219,0,0,1,1.74-1.793,4.341,4.341,0,0,1,2.268-.6,3.6,3.6,0,0,1,1.828.428,3.009,3.009,0,0,1,1.184,1.354,4.724,4.724,0,0,1,.445,2.074v5.344a1.125,1.125,0,0,0,.27.85,1.3,1.3,0,0,0,.9.252h.773v.879h-5.789v-.879h.551a1.763,1.763,0,0,0,1.078-.246.893.893,0,0,0,.3-.738v-4.7a4.331,4.331,0,0,0-.469-2.273,2.188,2.188,0,0,0-1.992-1.055A2.756,2.756,0,0,0,152,522.387a4.206,4.206,0,0,0-.885,2.777v4.066a1.11,1.11,0,0,0,.275.85,1.329,1.329,0,0,0,.908.252h.762v.879h-5.812v-.879h.762a1.393,1.393,0,0,0,.873-.234.717.717,0,0,0,.3-.586v-7.09a1.406,1.406,0,0,0-.381-1.066,1.527,1.527,0,0,0-1.1-.363h-.562Zm10.77-5.355h.4a2.816,2.816,0,0,1-.68,1.963,2.15,2.15,0,0,1-1.641.721,8.245,8.245,0,0,1-2.4-.609,6.379,6.379,0,0,0-1.652-.434q-.867,0-1.16,1.043h-.4q.246-2.648,2.332-2.648a7.313,7.313,0,0,1,2.227.516,8.257,8.257,0,0,0,1.84.527Q157.606,515.953,157.911,514.875Z" transform="translate(-17.008 -0.336)"/>
      <path class="cls-3" d="M166.981,519.9a4.906,4.906,0,0,1,3.721,1.6,5.9,5.9,0,0,1,1.506,4.213,6.494,6.494,0,0,1-.674,3.076,5.033,5.033,0,0,1-1.922,2.01,5.192,5.192,0,0,1-2.689.738,4.72,4.72,0,0,1-3.615-1.617,6.684,6.684,0,0,1,.006-8.4A4.788,4.788,0,0,1,166.981,519.9Zm0,.832a2.548,2.548,0,0,0-2.156,1.189,6.584,6.584,0,0,0-.844,3.756,6.818,6.818,0,0,0,.838,3.82,2.534,2.534,0,0,0,2.162,1.207A2.6,2.6,0,0,0,169.2,529.5a7.036,7.036,0,0,0,.85-3.949,6.3,6.3,0,0,0-.838-3.68A2.638,2.638,0,0,0,166.981,520.734Z" transform="translate(-17.008 -0.336)"/>
      <path class="cls-3" d="M173.626,520.23l3.949-.2v4.441a9.753,9.753,0,0,1,1.523-3.316,2.711,2.711,0,0,1,2.2-1.125,1.9,1.9,0,0,1,1.424.545,2,2,0,0,1,.533,1.459,1.692,1.692,0,0,1-.357,1.148,1.139,1.139,0,0,1-.9.41,1.1,1.1,0,0,1-.85-.352,1.35,1.35,0,0,1-.322-.949,1.481,1.481,0,0,1,.188-.727,1.386,1.386,0,0,0,.176-.363q0-.176-.223-.176a1.725,1.725,0,0,0-1.09.563,5.065,5.065,0,0,0-1.3,2.156,11.585,11.585,0,0,0-.7,3.41v2.355a.715.715,0,0,0,.281.609,1.648,1.648,0,0,0,.961.211h1.395v.879H173.7v-.879h1.09a1.347,1.347,0,0,0,.832-.217.642.642,0,0,0,.281-.521v-7a1.684,1.684,0,0,0-.34-1.166,1.256,1.256,0,0,0-.973-.369h-.961Z" transform="translate(-17.008 -0.336)"/>
      <path class="cls-3" d="M191.474,513.879h9.035a6.23,6.23,0,0,1,4.072,1.171,3.661,3.661,0,0,1,1.412,2.938,3.5,3.5,0,0,1-.984,2.506,6.71,6.71,0,0,1-2.965,1.627,7.823,7.823,0,0,1,3.674,1.624,3.613,3.613,0,0,1,1.225,2.8,3.892,3.892,0,0,1-.7,2.287,5.247,5.247,0,0,1-2.32,1.688,9.307,9.307,0,0,1-3.686.692h-8.766v-.879h1.43a1.66,1.66,0,0,0,.943-.211.593.593,0,0,0,.3-.48V515.754a.928.928,0,0,0-.293-.744,1.278,1.278,0,0,0-.855-.252h-1.523Zm5.18,7.957h3.281a3.269,3.269,0,0,0,2.408-.889,3.987,3.987,0,0,0,.9-2.914,3.756,3.756,0,0,0-.428-1.953,2.468,2.468,0,0,0-1.242-1.024,8.572,8.572,0,0,0-2.818-.321,4.4,4.4,0,0,0-1.758.205.77.77,0,0,0-.34.719Zm0,.879v6.68a.872.872,0,0,0,.275.7,1.563,1.563,0,0,0,.99.234h2.1a4.425,4.425,0,0,0,3.082-.92,3.724,3.724,0,0,0,1-2.865,3.78,3.78,0,0,0-1.031-2.807,3.861,3.861,0,0,0-2.848-1.025Z" transform="translate(-17.008 -0.336)"/>
      <path class="cls-3" d="M213.634,519.9a4.906,4.906,0,0,1,3.721,1.6,5.9,5.9,0,0,1,1.506,4.213,6.494,6.494,0,0,1-.674,3.076,5.033,5.033,0,0,1-1.922,2.01,5.192,5.192,0,0,1-2.689.738,4.72,4.72,0,0,1-3.615-1.617,6.684,6.684,0,0,1,.006-8.4A4.788,4.788,0,0,1,213.634,519.9Zm0,.832a2.548,2.548,0,0,0-2.156,1.189,6.584,6.584,0,0,0-.844,3.756,6.818,6.818,0,0,0,.838,3.82,2.534,2.534,0,0,0,2.162,1.207,2.6,2.6,0,0,0,2.221-1.207,7.036,7.036,0,0,0,.85-3.949,6.3,6.3,0,0,0-.838-3.68A2.638,2.638,0,0,0,213.634,520.734Z" transform="translate(-17.008 -0.336)"/>
      <path class="cls-3" d="M221.778,527.074a6.436,6.436,0,0,0,1.67,2.807,3.531,3.531,0,0,0,2.326.779,3.044,3.044,0,0,0,1.963-.557,1.742,1.742,0,0,0,.686-1.412,1.487,1.487,0,0,0-.252-.861,1.515,1.515,0,0,0-.7-.551,16.716,16.716,0,0,0-2.313-.533,9.526,9.526,0,0,1-2.488-.738,2.793,2.793,0,0,1-1.1-1.066,2.9,2.9,0,0,1-.393-1.477,3.365,3.365,0,0,1,.81-2.191,3.592,3.592,0,0,1,2.922-1.254,4.369,4.369,0,0,1,2.652.9l.775-.82h.481l.305,3.914h-.785a4.949,4.949,0,0,0-1.4-2.4,3.282,3.282,0,0,0-2.172-.732,2.6,2.6,0,0,0-1.75.545,1.69,1.69,0,0,0-.634,1.33,1.4,1.4,0,0,0,.587,1.148,5.122,5.122,0,0,0,2.254.739,16.786,16.786,0,0,1,2.536.554,3.08,3.08,0,0,1,1.49,1.083,2.971,2.971,0,0,1,.528,1.786,3.158,3.158,0,0,1-1.144,2.46,4.237,4.237,0,0,1-2.9,1.007,4.855,4.855,0,0,1-3.028-1.078l-.856.984h-.622l-.235-4.371Z" transform="translate(-17.008 -0.336)"/>
      <path class="cls-3" d="M232.888,527.074a6.436,6.436,0,0,0,1.67,2.807,3.531,3.531,0,0,0,2.326.779,3.044,3.044,0,0,0,1.963-.557,1.742,1.742,0,0,0,.686-1.412,1.487,1.487,0,0,0-.252-.861,1.515,1.515,0,0,0-.7-.551,16.716,16.716,0,0,0-2.313-.533,9.526,9.526,0,0,1-2.488-.738,2.793,2.793,0,0,1-1.1-1.066,2.9,2.9,0,0,1-.393-1.477,3.365,3.365,0,0,1,.81-2.191,3.592,3.592,0,0,1,2.922-1.254,4.369,4.369,0,0,1,2.652.9l.775-.82h.481l.305,3.914h-.785a4.949,4.949,0,0,0-1.4-2.4,3.282,3.282,0,0,0-2.172-.732,2.6,2.6,0,0,0-1.75.545,1.69,1.69,0,0,0-.634,1.33,1.4,1.4,0,0,0,.587,1.148,5.122,5.122,0,0,0,2.254.739,16.786,16.786,0,0,1,2.536.554,3.08,3.08,0,0,1,1.49,1.083,2.971,2.971,0,0,1,.528,1.786,3.158,3.158,0,0,1-1.144,2.46,4.237,4.237,0,0,1-2.9,1.007,4.855,4.855,0,0,1-3.028-1.078l-.856.984h-.622l-.235-4.371Z" transform="translate(-17.008 -0.336)"/>
    </g>
    <g>
      <path class="cls-3" d="M334.727,513.879h7.406v.879h-1.359a1.241,1.241,0,0,0-.932.252,2.163,2.163,0,0,0-.217,1.225v5.344h7.922v-5.344a2.26,2.26,0,0,0-.205-1.242,1.347,1.347,0,0,0-.967-.234h-1.266v-.879h7.359v.879h-1.348a1.413,1.413,0,0,0-.709.129.907.907,0,0,0-.334.445,4.382,4.382,0,0,0-.07,1.043v12.469a2.225,2.225,0,0,0,.152,1.09,1.327,1.327,0,0,0,1.113.4h1.2v.879h-7.359v-.879h1.266a1.132,1.132,0,0,0,1.02-.41,2.639,2.639,0,0,0,.152-1.172v-6.023h-7.922v6.117a2.432,2.432,0,0,0,.141,1.1,1.187,1.187,0,0,0,1.008.387h1.359v.879h-7.406v-.879h1.418a1.042,1.042,0,0,0,.6-.152.884.884,0,0,0,.328-.434,4.756,4.756,0,0,0,.059-1V516.234a2.163,2.163,0,0,0-.217-1.225,1.262,1.262,0,0,0-.943-.252h-1.242Z" transform="translate(-17.008 -0.336)"/>
      <path class="cls-3" d="M354.168,520.23l4.371-.129v9.445a.7.7,0,0,0,.188.551,1,1,0,0,0,.68.234h1.242v.879H354.4v-.879h1.16a1,1,0,0,0,.756-.252,1.022,1.022,0,0,0,.24-.732v-6.914a1.257,1.257,0,0,0-.375-.99,1.628,1.628,0,0,0-1.113-.334h-.9Zm3.047-6.551a1.27,1.27,0,0,1,.926.4,1.283,1.283,0,0,1,.4.938,1.25,1.25,0,0,1-.387.914,1.309,1.309,0,1,1-.937-2.25Z" transform="translate(-17.008 -0.336)"/>
      <path class="cls-3" d="M370.352,520.852a3.246,3.246,0,0,1,2.156-1.184,1.341,1.341,0,0,1,.973.375,1.225,1.225,0,0,1,.387.914,1.025,1.025,0,0,1-.264.721.812.812,0,0,1-.615.287q-.668,0-.9-.82-.094-.352-.316-.352a1.265,1.265,0,0,0-.867.527,5.187,5.187,0,0,1,.691,1.2,3.149,3.149,0,0,1,.188,1.1,3.3,3.3,0,0,1-.492,1.8,4.133,4.133,0,0,1-1.635,1.377,4.72,4.72,0,0,1-2.186.6h-1.277a3.822,3.822,0,0,0-1.8.281.96.96,0,0,0-.445.855.8.8,0,0,0,.363.7,2.651,2.651,0,0,0,1.371.246l2.895-.059a5.3,5.3,0,0,1,3.158.732,2.384,2.384,0,0,1,.967,2.01,3.02,3.02,0,0,1-1.1,2.367,6.73,6.73,0,0,1-4.582,1.359,6.167,6.167,0,0,1-3.738-.926,2.051,2.051,0,0,1-.961-1.629,1.708,1.708,0,0,1,.615-1.266,4.223,4.223,0,0,1,2.068-.855,3.875,3.875,0,0,1-1.746-.826,1.773,1.773,0,0,1-.586-1.354,1.951,1.951,0,0,1,.475-1.307,3.715,3.715,0,0,1,1.646-.955,4.09,4.09,0,0,1-1.5-1.33,3.218,3.218,0,0,1-.5-1.787,3.385,3.385,0,0,1,1.254-2.672,4.82,4.82,0,0,1,3.258-1.078,5.349,5.349,0,0,1,1.582.234A5.59,5.59,0,0,1,370.352,520.852Zm-2.391,10.371a5.9,5.9,0,0,0-3.076.6,1.714,1.714,0,0,0-.92,1.441,1.428,1.428,0,0,0,.691,1.254,4.675,4.675,0,0,0,2.6.609,5.586,5.586,0,0,0,3.035-.668,1.847,1.847,0,0,0,1.02-1.488,1.452,1.452,0,0,0-.316-.9,1.955,1.955,0,0,0-1.008-.633A7.186,7.186,0,0,0,367.961,531.223Zm-.691-10.57a2.2,2.2,0,0,0-1.723.768,3.135,3.135,0,0,0-.68,2.15,3.477,3.477,0,0,0,.68,2.291,2.269,2.269,0,0,0,3.463.023,3.4,3.4,0,0,0,.674-2.268,3.214,3.214,0,0,0-.686-2.168A2.183,2.183,0,0,0,367.27,520.652Z" transform="translate(-17.008 -0.336)"/>
      <path class="cls-3" d="M374.547,513.879l4.16-.2v8.461a6.241,6.241,0,0,1,1.863-1.682,4.26,4.26,0,0,1,2.109-.557,3.631,3.631,0,0,1,1.9.5A3.084,3.084,0,0,1,385.7,521.8a5.545,5.545,0,0,1,.463,2.355v5.215a.932.932,0,0,0,.258.732,1.2,1.2,0,0,0,.809.229h.938v.879h-5.93v-.879h.656a1.661,1.661,0,0,0,1.037-.24.886.886,0,0,0,.287-.721v-5.215a3.171,3.171,0,0,0-.662-2.139,2.136,2.136,0,0,0-1.693-.768,2.771,2.771,0,0,0-1.5.434A3.448,3.448,0,0,0,379.188,523a3.861,3.861,0,0,0-.48,1.869v4.383a1.151,1.151,0,0,0,.246.832,1.113,1.113,0,0,0,.809.246h.938v.879h-5.8v-.879h.656a1.372,1.372,0,0,0,.949-.264,1.067,1.067,0,0,0,.281-.814v-13.1a1.371,1.371,0,0,0-.369-1.049,1.513,1.513,0,0,0-1.072-.346h-.8Z" transform="translate(-17.008 -0.336)"/>
      <path class="cls-3" d="M406.469,515.191l1.055-1.512h.855l.07,6.316h-.773a8.552,8.552,0,0,0-2.15-4.242,4.647,4.647,0,0,0-3.275-1.336,3.542,3.542,0,0,0-2.531.927,2.99,2.99,0,0,0-.984,2.264,2.793,2.793,0,0,0,.375,1.46,2.759,2.759,0,0,0,1.119,1.021,12.4,12.4,0,0,0,2.807.836A16.475,16.475,0,0,1,407.1,522.2a4.183,4.183,0,0,1,2.314,3.914A5.205,5.205,0,0,1,407.834,530a5.579,5.579,0,0,1-4.072,1.541A6.852,6.852,0,0,1,399.1,529.8l-1.324,1.617h-.844v-6.715h.844a7.632,7.632,0,0,0,2.2,4.383,5.492,5.492,0,0,0,3.855,1.605,3.976,3.976,0,0,0,2.83-1.025,3.284,3.284,0,0,0,1.1-2.49,2.6,2.6,0,0,0-.41-1.459,3.107,3.107,0,0,0-1.3-1.055,20.1,20.1,0,0,0-3.5-1.037,10.506,10.506,0,0,1-3.914-1.523,4.123,4.123,0,0,1-1.465-3.387,5,5,0,0,1,5.191-5.2,5.622,5.622,0,0,1,2.074.387A7.321,7.321,0,0,1,406.469,515.191Z" transform="translate(-17.008 -0.336)"/>
      <path class="cls-3" d="M415.422,513.68v15.914a.636.636,0,0,0,.2.5,1.108,1.108,0,0,0,.715.234h1.16v.879h-6.223v-.879h1.1a1.108,1.108,0,0,0,.8-.258.97.97,0,0,0,.264-.727V515.988a1.064,1.064,0,0,0-.316-.855,1.573,1.573,0,0,0-1.066-.375h-.984v-.879Z" transform="translate(-17.008 -0.336)"/>
      <path class="cls-3" d="M418.621,520.23l4.371-.129v9.445a.7.7,0,0,0,.188.551,1,1,0,0,0,.68.234H425.1v.879h-6.246v-.879h1.16a1,1,0,0,0,.756-.252,1.022,1.022,0,0,0,.24-.732v-6.914a1.257,1.257,0,0,0-.375-.99,1.628,1.628,0,0,0-1.113-.334h-.9Zm3.047-6.551a1.27,1.27,0,0,1,.926.4,1.283,1.283,0,0,1,.4.938,1.25,1.25,0,0,1-.387.914,1.309,1.309,0,1,1-.937-2.25Z" transform="translate(-17.008 -0.336)"/>
      <path class="cls-3" d="M427.07,520.23l3.141-.2a17.7,17.7,0,0,1,.34,2.333,6.051,6.051,0,0,1,1.784-1.808,3.789,3.789,0,0,1,1.96-.525,2.9,2.9,0,0,1,1.878.6,3.8,3.8,0,0,1,1.139,1.938,5.959,5.959,0,0,1,1.743-1.9,3.741,3.741,0,0,1,2.095-.63,2.77,2.77,0,0,1,2.247.891,4.618,4.618,0,0,1,.959,3.023v5.449a.772.772,0,0,0,.246.668,1.5,1.5,0,0,0,.973.27h.551v.879h-5.52v-.879h.551a1.566,1.566,0,0,0,.984-.234.865.865,0,0,0,.281-.7v-5.457a2.744,2.744,0,0,0-.6-1.889,2,2,0,0,0-1.567-.669,2.364,2.364,0,0,0-1.333.394,2.632,2.632,0,0,0-.936,1.12,4.263,4.263,0,0,0-.5,1.771v4.729a.9.9,0,0,0,.258.71,1.176,1.176,0,0,0,.8.229h.75v.879h-5.6v-.879h.633a1.411,1.411,0,0,0,.891-.234.733.733,0,0,0,.293-.6v-5.062a3.8,3.8,0,0,0-.568-2.332,1.841,1.841,0,0,0-1.529-.727,2.294,2.294,0,0,0-1.91.844,4.354,4.354,0,0,0-.949,2.789v4.383a.873.873,0,0,0,.223.691,1.6,1.6,0,0,0,.984.246h.563v.879h-5.531v-.879h.832a1.02,1.02,0,0,0,.721-.234.78.78,0,0,0,.252-.6v-7.2a1.183,1.183,0,0,0-.3-.891,2.1,2.1,0,0,0-1.219-.375Z" transform="translate(-17.008 -0.336)"/>
      <path class="cls-3" d="M458.031,525.8h-7.863a5.719,5.719,0,0,0,.938,3.539,3.249,3.249,0,0,0,2.566,1.16q2.3,0,3.691-2.613l.762.328a5.36,5.36,0,0,1-4.945,3.328,4.9,4.9,0,0,1-3.709-1.594,5.7,5.7,0,0,1-1.506-4.078,6.208,6.208,0,0,1,1.482-4.318,4.72,4.72,0,0,1,3.65-1.646,4.646,4.646,0,0,1,2.754.82,4.95,4.95,0,0,1,1.746,2.355A8.05,8.05,0,0,1,458.031,525.8Zm-7.863-.832h4.758a.8.8,0,0,0,.656-.287,1.57,1.57,0,0,0,.234-.979,3.181,3.181,0,0,0-.8-2.191,2.458,2.458,0,0,0-1.893-.9,2.544,2.544,0,0,0-2.068,1.09A5.412,5.412,0,0,0,450.168,524.965Z" transform="translate(-17.008 -0.336)"/>
      <path class="cls-3" d="M476.711,515.191l1.055-1.512h.855l.07,6.316h-.773a8.552,8.552,0,0,0-2.15-4.242,4.647,4.647,0,0,0-3.275-1.336,3.542,3.542,0,0,0-2.531.927,2.99,2.99,0,0,0-.984,2.264,2.793,2.793,0,0,0,.375,1.46,2.759,2.759,0,0,0,1.119,1.021,12.4,12.4,0,0,0,2.807.836,16.475,16.475,0,0,1,4.062,1.274,4.183,4.183,0,0,1,2.314,3.914A5.205,5.205,0,0,1,478.076,530,5.579,5.579,0,0,1,474,531.539a6.852,6.852,0,0,1-4.664-1.734l-1.324,1.617h-.844v-6.715h.844a7.632,7.632,0,0,0,2.2,4.383,5.492,5.492,0,0,0,3.855,1.605,3.976,3.976,0,0,0,2.83-1.025,3.284,3.284,0,0,0,1.1-2.49,2.6,2.6,0,0,0-.41-1.459,3.107,3.107,0,0,0-1.3-1.055,20.1,20.1,0,0,0-3.5-1.037,10.506,10.506,0,0,1-3.914-1.523,4.123,4.123,0,0,1-1.465-3.387,5,5,0,0,1,5.191-5.2,5.622,5.622,0,0,1,2.074.387A7.321,7.321,0,0,1,476.711,515.191Z" transform="translate(-17.008 -0.336)"/>
      <path class="cls-3" d="M486.7,519.9a4.906,4.906,0,0,1,3.721,1.6,5.9,5.9,0,0,1,1.506,4.213,6.494,6.494,0,0,1-.674,3.076,5.033,5.033,0,0,1-1.922,2.01,5.192,5.192,0,0,1-2.689.738,4.72,4.72,0,0,1-3.615-1.617,6.684,6.684,0,0,1,.006-8.4A4.788,4.788,0,0,1,486.7,519.9Zm0,.832a2.548,2.548,0,0,0-2.156,1.189,6.584,6.584,0,0,0-.844,3.756,6.818,6.818,0,0,0,.838,3.82,2.534,2.534,0,0,0,2.162,1.207,2.6,2.6,0,0,0,2.221-1.207,7.036,7.036,0,0,0,.85-3.949,6.3,6.3,0,0,0-.838-3.68A2.638,2.638,0,0,0,486.7,520.734Z" transform="translate(-17.008 -0.336)"/>
      <path class="cls-3" d="M497.664,513.68v15.914a.636.636,0,0,0,.2.5,1.108,1.108,0,0,0,.715.234h1.16v.879h-6.223v-.879h1.1a1.108,1.108,0,0,0,.8-.258.97.97,0,0,0,.264-.727V515.988a1.064,1.064,0,0,0-.316-.855,1.573,1.573,0,0,0-1.066-.375h-.984v-.879Z" transform="translate(-17.008 -0.336)"/>
      <path class="cls-3" d="M507.3,513.879l4.289-.2V528.7a1.876,1.876,0,0,0,.334,1.254,1.273,1.273,0,0,0,1,.375h.762v.879h-3.75l-.281-2.238a5.118,5.118,0,0,1-1.564,1.8,3.518,3.518,0,0,1-2.01.6,4.031,4.031,0,0,1-3.193-1.57,6.238,6.238,0,0,1-1.318-4.148,5.972,5.972,0,0,1,1.688-4.453,4.224,4.224,0,0,1,3.047-1.3,3.479,3.479,0,0,1,1.893.527,4.507,4.507,0,0,1,1.459,1.594v-6.2a.924.924,0,0,0-.381-.779,1.982,1.982,0,0,0-1.189-.287H507.3Zm-.68,7a2.344,2.344,0,0,0-2.01,1.043,6.252,6.252,0,0,0-.744,3.516,6.917,6.917,0,0,0,.762,3.779,2.3,2.3,0,0,0,1.957,1.1,2.662,2.662,0,0,0,2.186-1.225,5.955,5.955,0,0,0,.908-3.58,5.657,5.657,0,0,0-.973-3.5A2.526,2.526,0,0,0,506.617,520.875Z" transform="translate(-17.008 -0.336)"/>
      <path class="cls-3" d="M525.156,525.8h-7.863a5.719,5.719,0,0,0,.938,3.539,3.249,3.249,0,0,0,2.566,1.16q2.3,0,3.691-2.613l.762.328a5.36,5.36,0,0,1-4.945,3.328,4.9,4.9,0,0,1-3.709-1.594,5.7,5.7,0,0,1-1.506-4.078,6.208,6.208,0,0,1,1.482-4.318,4.72,4.72,0,0,1,3.65-1.646,4.646,4.646,0,0,1,2.754.82,4.95,4.95,0,0,1,1.746,2.355A8.05,8.05,0,0,1,525.156,525.8Zm-7.863-.832h4.758a.8.8,0,0,0,.656-.287,1.57,1.57,0,0,0,.234-.979,3.181,3.181,0,0,0-.8-2.191,2.458,2.458,0,0,0-1.893-.9,2.544,2.544,0,0,0-2.068,1.09A5.412,5.412,0,0,0,517.293,524.965Z" transform="translate(-17.008 -0.336)"/>
      <path class="cls-3" d="M526.68,520.23l3.949-.2v4.441a9.753,9.753,0,0,1,1.523-3.316,2.711,2.711,0,0,1,2.2-1.125,1.9,1.9,0,0,1,1.424.545,2,2,0,0,1,.533,1.459,1.692,1.692,0,0,1-.357,1.148,1.139,1.139,0,0,1-.9.41,1.1,1.1,0,0,1-.85-.352,1.35,1.35,0,0,1-.322-.949,1.481,1.481,0,0,1,.188-.727,1.386,1.386,0,0,0,.176-.363q0-.176-.223-.176a1.725,1.725,0,0,0-1.09.563,5.065,5.065,0,0,0-1.3,2.156,11.585,11.585,0,0,0-.7,3.41v2.355a.715.715,0,0,0,.281.609,1.648,1.648,0,0,0,.961.211h1.395v.879h-6.82v-.879h1.09a1.347,1.347,0,0,0,.832-.217.642.642,0,0,0,.281-.521v-7a1.684,1.684,0,0,0-.34-1.166,1.256,1.256,0,0,0-.973-.369h-.961Z" transform="translate(-17.008 -0.336)"/>
    </g>
    <g>
      <path class="cls-3" d="M567.968,511.095h8.954a6.179,6.179,0,0,1,4.037,1.184,3.83,3.83,0,0,1,1.436,3.105,3.737,3.737,0,0,1-.568,2.045,3.986,3.986,0,0,1-1.641,1.43,10.389,10.389,0,0,1-3.369.768,8.2,8.2,0,0,1,2.3.9,3.259,3.259,0,0,1,1.01,1.137,13.264,13.264,0,0,1,.879,2.842,6.485,6.485,0,0,0,.754,2.1.835.835,0,0,0,.656.434q.363,0,.674-.533a4.513,4.513,0,0,0,.381-1.881h.8q-.223,3.984-2.941,3.984a2.541,2.541,0,0,1-1.482-.434,2.611,2.611,0,0,1-.943-1.277,18.5,18.5,0,0,1-.551-3.316,6.079,6.079,0,0,0-.557-2.215,2.7,2.7,0,0,0-1.189-1.055,4.336,4.336,0,0,0-1.934-.4h-1.418v6.809a.734.734,0,0,0,.223.609,1.411,1.411,0,0,0,.879.223h1.664v.879h-8.051v-.879h1.7a1.266,1.266,0,0,0,.826-.223.755.755,0,0,0,.264-.609V512.864a.816.816,0,0,0-.27-.668,1.269,1.269,0,0,0-.82-.223h-1.7Zm5.285,7.969H575.3a5.77,5.77,0,0,0,3.229-.778,3.079,3.079,0,0,0,1.166-2.767,4.5,4.5,0,0,0-.439-2.164,2.329,2.329,0,0,0-1.154-1.088,8.74,8.74,0,0,0-2.813-.293,4.4,4.4,0,0,0-1.711.193.7.7,0,0,0-.328.66Z" transform="translate(-17.008 -0.336)"/>
      <path class="cls-3" d="M597.078,527.22l.422.656a2.6,2.6,0,0,1-1.9.879,2.087,2.087,0,0,1-1.342-.434,3.49,3.49,0,0,1-.955-1.523,7.046,7.046,0,0,1-1.957,1.564,4.776,4.776,0,0,1-2.027.393,3.941,3.941,0,0,1-2.566-.727,2.309,2.309,0,0,1-.879-1.863,3.287,3.287,0,0,1,2.01-2.842,14.2,14.2,0,0,1,5.35-1.506v-1.664a1.965,1.965,0,0,0-.715-1.523A2.639,2.639,0,0,0,590.7,518a3.485,3.485,0,0,0-1.758.422q-.527.316-.527.621a1.146,1.146,0,0,0,.281.551,1.482,1.482,0,0,1,.34.832,1.155,1.155,0,0,1-.34.861,1.216,1.216,0,0,1-.891.334,1.318,1.318,0,0,1-.979-.4,1.392,1.392,0,0,1-.393-1.02,2.678,2.678,0,0,1,1.307-2.121,5.648,5.648,0,0,1,3.428-.961,4.617,4.617,0,0,1,2.988.844,2.606,2.606,0,0,1,1.031,2.074v6a2.1,2.1,0,0,0,.258,1.172.775.775,0,0,0,.668.387A1.631,1.631,0,0,0,597.078,527.22Zm-3.844-4.629a9.5,9.5,0,0,0-4.219,1.336,2.355,2.355,0,0,0-.926,1.992,1.977,1.977,0,0,0,.48,1.412,1.644,1.644,0,0,0,1.254.51,3.224,3.224,0,0,0,2.4-1.049,3.634,3.634,0,0,0,1.014-2.631Z" transform="translate(-17.008 -0.336)"/>
      <path class="cls-3" d="M598.824,517.446l3.645-.223a18.09,18.09,0,0,1,.328,2.414,5.219,5.219,0,0,1,1.74-1.793,4.341,4.341,0,0,1,2.268-.6,3.6,3.6,0,0,1,1.828.428,3.009,3.009,0,0,1,1.184,1.354,4.724,4.724,0,0,1,.445,2.074v5.344a1.125,1.125,0,0,0,.27.85,1.3,1.3,0,0,0,.9.252h.773v.879h-5.789v-.879h.551a1.763,1.763,0,0,0,1.078-.246.893.893,0,0,0,.3-.738v-4.7a4.331,4.331,0,0,0-.469-2.273,2.188,2.188,0,0,0-1.992-1.055,2.756,2.756,0,0,0-2.209,1.066,4.206,4.206,0,0,0-.885,2.777v4.066a1.11,1.11,0,0,0,.275.85,1.329,1.329,0,0,0,.908.252h.762v.879H598.93v-.879h.762a1.393,1.393,0,0,0,.873-.234.717.717,0,0,0,.3-.586v-7.09a1.406,1.406,0,0,0-.381-1.066,1.527,1.527,0,0,0-1.1-.363h-.562Z" transform="translate(-17.008 -0.336)"/>
      <path class="cls-3" d="M619.707,511.095l4.289-.2v15.023a1.876,1.876,0,0,0,.334,1.254,1.273,1.273,0,0,0,1,.375h.762v.879h-3.75l-.281-2.238a5.118,5.118,0,0,1-1.564,1.8,3.518,3.518,0,0,1-2.01.6,4.031,4.031,0,0,1-3.193-1.57,6.238,6.238,0,0,1-1.318-4.148,5.972,5.972,0,0,1,1.688-4.453,4.224,4.224,0,0,1,3.047-1.3,3.479,3.479,0,0,1,1.893.527,4.507,4.507,0,0,1,1.459,1.594v-6.2a.924.924,0,0,0-.381-.779,1.982,1.982,0,0,0-1.189-.287h-.785Zm-.68,7a2.344,2.344,0,0,0-2.01,1.043,6.252,6.252,0,0,0-.744,3.516,6.917,6.917,0,0,0,.762,3.779,2.3,2.3,0,0,0,1.957,1.1,2.662,2.662,0,0,0,2.186-1.225,5.955,5.955,0,0,0,.908-3.58,5.657,5.657,0,0,0-.973-3.5A2.526,2.526,0,0,0,619.027,518.091Z" transform="translate(-17.008 -0.336)"/>
      <path class="cls-3" d="M632.445,517.118a4.906,4.906,0,0,1,3.721,1.6,5.9,5.9,0,0,1,1.506,4.213,6.494,6.494,0,0,1-.674,3.076,5.033,5.033,0,0,1-1.922,2.01,5.192,5.192,0,0,1-2.689.738,4.72,4.72,0,0,1-3.615-1.617,6.684,6.684,0,0,1,.006-8.4A4.788,4.788,0,0,1,632.445,517.118Zm0,.832a2.548,2.548,0,0,0-2.156,1.189,6.584,6.584,0,0,0-.844,3.756,6.818,6.818,0,0,0,.838,3.82,2.534,2.534,0,0,0,2.162,1.207,2.6,2.6,0,0,0,2.221-1.207,7.036,7.036,0,0,0,.85-3.949,6.3,6.3,0,0,0-.838-3.68A2.638,2.638,0,0,0,632.445,517.95Z" transform="translate(-17.008 -0.336)"/>
      <path class="cls-3" d="M639.945,517.446l3.141-.2a17.7,17.7,0,0,1,.34,2.333,6.051,6.051,0,0,1,1.784-1.808,3.789,3.789,0,0,1,1.96-.525,2.9,2.9,0,0,1,1.878.6,3.8,3.8,0,0,1,1.139,1.938,5.959,5.959,0,0,1,1.743-1.9,3.741,3.741,0,0,1,2.095-.63,2.772,2.772,0,0,1,2.247.891,4.623,4.623,0,0,1,.959,3.023v5.449a.772.772,0,0,0,.246.668,1.5,1.5,0,0,0,.973.27H659v.879h-5.52v-.879h.551a1.566,1.566,0,0,0,.984-.234.865.865,0,0,0,.281-.7v-5.457a2.744,2.744,0,0,0-.6-1.889,2,2,0,0,0-1.566-.669,2.367,2.367,0,0,0-1.333.394,2.626,2.626,0,0,0-.935,1.12,4.265,4.265,0,0,0-.5,1.771v4.729a.9.9,0,0,0,.258.71,1.176,1.176,0,0,0,.8.229h.75v.879h-5.6v-.879h.633a1.411,1.411,0,0,0,.891-.234.733.733,0,0,0,.293-.6v-5.062a3.8,3.8,0,0,0-.568-2.332,1.841,1.841,0,0,0-1.529-.727,2.294,2.294,0,0,0-1.91.844,4.354,4.354,0,0,0-.949,2.789v4.383a.873.873,0,0,0,.223.691,1.6,1.6,0,0,0,.984.246h.563v.879h-5.531v-.879h.832a1.02,1.02,0,0,0,.721-.234.78.78,0,0,0,.252-.6v-7.2a1.183,1.183,0,0,0-.3-.891,2.1,2.1,0,0,0-1.219-.375Z" transform="translate(-17.008 -0.336)"/>
      <path class="cls-3" d="M578.457,541.207l1.055-1.512h.855l.07,6.316h-.773a8.552,8.552,0,0,0-2.15-4.242,4.649,4.649,0,0,0-3.276-1.336,3.542,3.542,0,0,0-2.531.927,2.99,2.99,0,0,0-.984,2.264,2.793,2.793,0,0,0,.375,1.46,2.759,2.759,0,0,0,1.119,1.021,12.4,12.4,0,0,0,2.807.836,16.466,16.466,0,0,1,4.062,1.274,4.183,4.183,0,0,1,2.314,3.914,5.205,5.205,0,0,1-1.576,3.885,5.58,5.58,0,0,1-4.073,1.541,6.852,6.852,0,0,1-4.664-1.734l-1.324,1.617h-.844v-6.715h.844a7.632,7.632,0,0,0,2.2,4.383,5.492,5.492,0,0,0,3.855,1.605,3.976,3.976,0,0,0,2.831-1.025,3.284,3.284,0,0,0,1.1-2.49,2.6,2.6,0,0,0-.41-1.459,3.107,3.107,0,0,0-1.3-1.055,20.1,20.1,0,0,0-3.5-1.037,10.506,10.506,0,0,1-3.914-1.523,4.123,4.123,0,0,1-1.465-3.387,5,5,0,0,1,5.191-5.2,5.626,5.626,0,0,1,2.075.387A7.321,7.321,0,0,1,578.457,541.207Z" transform="translate(-17.008 -0.336)"/>
      <path class="cls-3" d="M583.262,546.246l3.645-.223a18.09,18.09,0,0,1,.328,2.414,5.219,5.219,0,0,1,1.74-1.793,4.341,4.341,0,0,1,2.268-.6,3.6,3.6,0,0,1,1.828.428,3.009,3.009,0,0,1,1.184,1.354,4.724,4.724,0,0,1,.445,2.074v5.344a1.125,1.125,0,0,0,.27.85,1.3,1.3,0,0,0,.9.252h.773v.879h-5.789v-.879h.551a1.763,1.763,0,0,0,1.078-.246.893.893,0,0,0,.3-.738v-4.7a4.331,4.331,0,0,0-.469-2.273,2.188,2.188,0,0,0-1.992-1.055,2.756,2.756,0,0,0-2.209,1.066,4.206,4.206,0,0,0-.885,2.777v4.066a1.11,1.11,0,0,0,.275.85,1.329,1.329,0,0,0,.908.252h.762v.879h-5.812v-.879h.762a1.393,1.393,0,0,0,.873-.234.717.717,0,0,0,.3-.586v-7.09a1.406,1.406,0,0,0-.381-1.066,1.527,1.527,0,0,0-1.1-.363h-.562Z" transform="translate(-17.008 -0.336)"/>
      <path class="cls-3" d="M609.523,556.02l.422.656a2.6,2.6,0,0,1-1.9.879,2.087,2.087,0,0,1-1.342-.434,3.49,3.49,0,0,1-.955-1.523,7.046,7.046,0,0,1-1.957,1.564,4.776,4.776,0,0,1-2.027.393,3.941,3.941,0,0,1-2.566-.727,2.309,2.309,0,0,1-.879-1.863,3.287,3.287,0,0,1,2.01-2.842,14.2,14.2,0,0,1,5.35-1.506v-1.664a1.965,1.965,0,0,0-.715-1.523,2.639,2.639,0,0,0-1.816-.633,3.485,3.485,0,0,0-1.758.422q-.527.316-.527.621a1.146,1.146,0,0,0,.281.551,1.482,1.482,0,0,1,.34.832,1.155,1.155,0,0,1-.34.861,1.216,1.216,0,0,1-.891.334,1.318,1.318,0,0,1-.979-.4,1.392,1.392,0,0,1-.393-1.02,2.678,2.678,0,0,1,1.307-2.121,5.648,5.648,0,0,1,3.428-.961,4.617,4.617,0,0,1,2.988.844,2.606,2.606,0,0,1,1.031,2.074v6a2.1,2.1,0,0,0,.258,1.172.775.775,0,0,0,.668.387A1.631,1.631,0,0,0,609.523,556.02Zm-3.844-4.629a9.5,9.5,0,0,0-4.219,1.336,2.355,2.355,0,0,0-.926,1.992,1.977,1.977,0,0,0,.48,1.412,1.644,1.644,0,0,0,1.254.51,3.224,3.224,0,0,0,2.4-1.049,3.634,3.634,0,0,0,1.014-2.631Z" transform="translate(-17.008 -0.336)"/>
      <path class="cls-3" d="M611.082,539.895l4.2-.2v11.988l3.57-3.109a1.227,1.227,0,0,0,.515-.8.5.5,0,0,0-.3-.454,3.657,3.657,0,0,0-1.484-.257v-.82h5.848v.82a4.2,4.2,0,0,0-2.648.914l-2.523,2.233,4.094,5.63a1.52,1.52,0,0,0,1.3.5h.609v.879h-6v-.879h.6a2.254,2.254,0,0,0,.9-.117q.229-.117.229-.281a.557.557,0,0,0-.117-.327l-2.988-4.187-1.593,1.409v2.777a.585.585,0,0,0,.223.5,1.508,1.508,0,0,0,.879.223h.762v.879h-5.895v-.879h.949a1.291,1.291,0,0,0,.867-.246.829.829,0,0,0,.281-.656V541.9a.89.89,0,0,0-.34-.773,2.236,2.236,0,0,0-1.324-.352h-.6Z" transform="translate(-17.008 -0.336)"/>
      <path class="cls-3" d="M635.8,551.813h-7.863a5.719,5.719,0,0,0,.938,3.539,3.249,3.249,0,0,0,2.566,1.16q2.3,0,3.691-2.613l.762.328a5.36,5.36,0,0,1-4.945,3.328,4.9,4.9,0,0,1-3.709-1.594,5.7,5.7,0,0,1-1.506-4.078,6.208,6.208,0,0,1,1.482-4.318,4.72,4.72,0,0,1,3.65-1.646,4.646,4.646,0,0,1,2.754.82,4.95,4.95,0,0,1,1.746,2.355A8.05,8.05,0,0,1,635.8,551.813Zm-7.863-.832h4.758a.8.8,0,0,0,.656-.287,1.57,1.57,0,0,0,.234-.979,3.181,3.181,0,0,0-.8-2.191,2.458,2.458,0,0,0-1.893-.9,2.544,2.544,0,0,0-2.068,1.09A5.412,5.412,0,0,0,627.934,550.98Z" transform="translate(-17.008 -0.336)"/>
      <path class="cls-3" d="M644.434,539.895h14.074l.34,6.551h-.809q-.8-5.777-4.181-5.777a1.392,1.392,0,0,0-.934.234,1.013,1.013,0,0,0-.253.773v13.852a.752.752,0,0,0,.246.621,1.292,1.292,0,0,0,.809.2h1.746v.879h-8.051v-.879h1.992a.855.855,0,0,0,.609-.2.691.691,0,0,0,.211-.527V541.57a.834.834,0,0,0-.27-.674,1.332,1.332,0,0,0-.867-.229,3.375,3.375,0,0,0-2.836,1.605,9.819,9.819,0,0,0-1.348,4.172h-.855Z" transform="translate(-17.008 -0.336)"/>
      <path class="cls-3" d="M659.891,539.895l4.16-.2v8.461a6.241,6.241,0,0,1,1.863-1.682,4.26,4.26,0,0,1,2.109-.557,3.631,3.631,0,0,1,1.9.5,3.084,3.084,0,0,1,1.119,1.395,5.545,5.545,0,0,1,.463,2.355v5.215a.932.932,0,0,0,.258.732,1.2,1.2,0,0,0,.809.229h.938v.879h-5.93v-.879h.656a1.661,1.661,0,0,0,1.037-.24.886.886,0,0,0,.287-.721v-5.215a3.171,3.171,0,0,0-.662-2.139,2.136,2.136,0,0,0-1.693-.768,2.771,2.771,0,0,0-1.5.434,3.448,3.448,0,0,0-1.172,1.318,3.861,3.861,0,0,0-.48,1.869v4.383a1.151,1.151,0,0,0,.246.832,1.113,1.113,0,0,0,.809.246h.938v.879h-5.8v-.879h.656a1.372,1.372,0,0,0,.949-.264,1.067,1.067,0,0,0,.281-.814v-13.1a1.371,1.371,0,0,0-.369-1.049,1.513,1.513,0,0,0-1.072-.346h-.8Z" transform="translate(-17.008 -0.336)"/>
      <path class="cls-3" d="M674.621,546.246l4.371-.129v9.445a.7.7,0,0,0,.188.551,1,1,0,0,0,.68.234H681.1v.879h-6.246v-.879h1.16a1,1,0,0,0,.756-.252,1.022,1.022,0,0,0,.24-.732v-6.914a1.257,1.257,0,0,0-.375-.99,1.628,1.628,0,0,0-1.113-.334h-.9Zm3.047-6.551a1.27,1.27,0,0,1,.926.4,1.283,1.283,0,0,1,.4.938,1.25,1.25,0,0,1-.387.914,1.309,1.309,0,1,1-.937-2.25Z" transform="translate(-17.008 -0.336)"/>
      <path class="cls-3" d="M682.391,546.246l3.645-.223a18.09,18.09,0,0,1,.328,2.414,5.219,5.219,0,0,1,1.74-1.793,4.341,4.341,0,0,1,2.268-.6,3.6,3.6,0,0,1,1.828.428,3.009,3.009,0,0,1,1.184,1.354,4.724,4.724,0,0,1,.445,2.074v5.344a1.125,1.125,0,0,0,.27.85,1.3,1.3,0,0,0,.9.252h.773v.879h-5.789v-.879h.551a1.763,1.763,0,0,0,1.078-.246.893.893,0,0,0,.3-.738v-4.7a4.331,4.331,0,0,0-.469-2.273,2.188,2.188,0,0,0-1.992-1.055,2.756,2.756,0,0,0-2.209,1.066,4.206,4.206,0,0,0-.885,2.777v4.066a1.11,1.11,0,0,0,.275.85,1.329,1.329,0,0,0,.908.252h.762v.879H682.5v-.879h.762a1.393,1.393,0,0,0,.873-.234.717.717,0,0,0,.3-.586v-7.09a1.406,1.406,0,0,0-.381-1.066,1.527,1.527,0,0,0-1.1-.363h-.562Z" transform="translate(-17.008 -0.336)"/>
      <path class="cls-3" d="M705.465,546.867a3.246,3.246,0,0,1,2.156-1.184,1.341,1.341,0,0,1,.973.375,1.225,1.225,0,0,1,.387.914,1.025,1.025,0,0,1-.264.721.812.812,0,0,1-.615.287q-.668,0-.9-.82-.094-.352-.316-.352a1.265,1.265,0,0,0-.867.527,5.187,5.187,0,0,1,.691,1.2,3.149,3.149,0,0,1,.188,1.1,3.3,3.3,0,0,1-.492,1.8,4.133,4.133,0,0,1-1.635,1.377,4.72,4.72,0,0,1-2.186.6H701.3a3.822,3.822,0,0,0-1.8.281.96.96,0,0,0-.445.855.8.8,0,0,0,.363.7,2.651,2.651,0,0,0,1.371.246l2.895-.059a5.3,5.3,0,0,1,3.158.732,2.384,2.384,0,0,1,.967,2.01,3.02,3.02,0,0,1-1.1,2.367,6.73,6.73,0,0,1-4.582,1.359,6.167,6.167,0,0,1-3.738-.926,2.051,2.051,0,0,1-.961-1.629,1.708,1.708,0,0,1,.615-1.266,4.223,4.223,0,0,1,2.068-.855,3.875,3.875,0,0,1-1.746-.826,1.773,1.773,0,0,1-.586-1.354,1.951,1.951,0,0,1,.475-1.307,3.715,3.715,0,0,1,1.646-.955,4.09,4.09,0,0,1-1.5-1.33,3.218,3.218,0,0,1-.5-1.787A3.385,3.385,0,0,1,699.148,547a4.82,4.82,0,0,1,3.258-1.078,5.349,5.349,0,0,1,1.582.234A5.59,5.59,0,0,1,705.465,546.867Zm-2.391,10.371a5.9,5.9,0,0,0-3.076.6,1.714,1.714,0,0,0-.92,1.441,1.428,1.428,0,0,0,.691,1.254,4.675,4.675,0,0,0,2.6.609,5.586,5.586,0,0,0,3.035-.668,1.847,1.847,0,0,0,1.02-1.488,1.452,1.452,0,0,0-.316-.9,1.955,1.955,0,0,0-1.008-.633A7.186,7.186,0,0,0,703.074,557.238Zm-.691-10.57a2.2,2.2,0,0,0-1.723.768,3.135,3.135,0,0,0-.68,2.15,3.477,3.477,0,0,0,.68,2.291,2.269,2.269,0,0,0,3.463.023,3.4,3.4,0,0,0,.674-2.268,3.214,3.214,0,0,0-.686-2.168A2.183,2.183,0,0,0,702.383,546.668Z" transform="translate(-17.008 -0.336)"/>
    </g>
    <g>
      <path class="cls-3" d="M802.293,507.879h7.922v.879h-1.687a1.153,1.153,0,0,0-.832.281.948.948,0,0,0-.293.715V517.8l6.527-6.971a1.76,1.76,0,0,0,.563-1.148.775.775,0,0,0-.387-.668,2.358,2.358,0,0,0-1.266-.258h-.48v-.879h7.113v.879h-.551a3.59,3.59,0,0,0-1.57.422,5.733,5.733,0,0,0-1.582,1.172l-4.014,4.192,5.748,8.476a3.2,3.2,0,0,0,1,1.014,2.388,2.388,0,0,0,1.219.3h.633v.879h-7.816v-.879h.891a3.319,3.319,0,0,0,1.295-.164q.322-.164.322-.41a.828.828,0,0,0-.141-.445l-4.778-7.025L807.4,519.2v4.266a.705.705,0,0,0,.234.586,1.442,1.442,0,0,0,.891.281h1.688v.879h-7.922v-.879h1.523a1.313,1.313,0,0,0,.867-.24.785.785,0,0,0,.281-.627v-13.84a.743.743,0,0,0-.316-.639,1.878,1.878,0,0,0-1.066-.229h-1.289Z" transform="translate(-17.008 -0.336)"/>
      <path class="cls-3" d="M824.535,514.031v7.277a2.93,2.93,0,0,0,.672,2.063,2.261,2.261,0,0,0,1.737.727,2.843,2.843,0,0,0,2.228-1.061,3.914,3.914,0,0,0,.918-2.654V516.27a1.037,1.037,0,0,0-.4-.873,2.869,2.869,0,0,0-1.553-.346v-.82l3.855-.2v9.012a1.255,1.255,0,0,0,.352.955,1.372,1.372,0,0,0,.984.334h.691v.785l-3.691.082-.234-2.156a7.957,7.957,0,0,1-1.978,1.746,3.927,3.927,0,0,1-2.013.586,3.4,3.4,0,0,1-2.492-1,4.523,4.523,0,0,1-1.018-3.34v-4.77a1.075,1.075,0,0,0-.5-.961,3.046,3.046,0,0,0-1.441-.258v-.82Z" transform="translate(-17.008 -0.336)"/>
      <path class="cls-3" d="M836.113,514.23l3.141-.2a17.7,17.7,0,0,1,.34,2.333,6.051,6.051,0,0,1,1.784-1.808,3.789,3.789,0,0,1,1.96-.525,2.9,2.9,0,0,1,1.878.6,3.8,3.8,0,0,1,1.139,1.938,5.959,5.959,0,0,1,1.743-1.9,3.741,3.741,0,0,1,2.095-.63,2.772,2.772,0,0,1,2.247.891,4.623,4.623,0,0,1,.959,3.023v5.449a.772.772,0,0,0,.246.668,1.5,1.5,0,0,0,.973.27h.551v.879h-5.52v-.879h.551a1.566,1.566,0,0,0,.984-.234.865.865,0,0,0,.281-.7v-5.457a2.744,2.744,0,0,0-.6-1.889,2,2,0,0,0-1.566-.669,2.367,2.367,0,0,0-1.333.394,2.626,2.626,0,0,0-.935,1.12,4.265,4.265,0,0,0-.5,1.771v4.729a.9.9,0,0,0,.258.71,1.176,1.176,0,0,0,.8.229h.75v.879h-5.6v-.879h.633a1.411,1.411,0,0,0,.891-.234.733.733,0,0,0,.293-.6v-5.062a3.8,3.8,0,0,0-.568-2.332,1.841,1.841,0,0,0-1.529-.727,2.294,2.294,0,0,0-1.91.844,4.354,4.354,0,0,0-.949,2.789v4.383a.873.873,0,0,0,.223.691,1.6,1.6,0,0,0,.984.246h.563v.879h-5.531v-.879h.832a1.02,1.02,0,0,0,.721-.234.78.78,0,0,0,.252-.6v-7.2a1.183,1.183,0,0,0-.3-.891,2.1,2.1,0,0,0-1.219-.375Z" transform="translate(-17.008 -0.336)"/>
      <path class="cls-3" d="M861.953,513.9a4.906,4.906,0,0,1,3.721,1.6,5.9,5.9,0,0,1,1.506,4.213,6.494,6.494,0,0,1-.674,3.076,5.033,5.033,0,0,1-1.922,2.01,5.192,5.192,0,0,1-2.689.738,4.72,4.72,0,0,1-3.615-1.617,6.684,6.684,0,0,1,.006-8.4A4.788,4.788,0,0,1,861.953,513.9Zm0,.832a2.548,2.548,0,0,0-2.156,1.189,6.584,6.584,0,0,0-.844,3.756,6.818,6.818,0,0,0,.838,3.82,2.534,2.534,0,0,0,2.162,1.207,2.6,2.6,0,0,0,2.221-1.207,7.036,7.036,0,0,0,.85-3.949,6.3,6.3,0,0,0-.838-3.68A2.638,2.638,0,0,0,861.953,514.734Z" transform="translate(-17.008 -0.336)"/>
    </g>
    <g>
      <path class="cls-3" d="M17.906,314.2h5.771l5.181,13.688L33.625,314.2h5.9v.879H38.086a1.672,1.672,0,0,0-1.025.223.967.967,0,0,0-.264.773V329.8a.728.728,0,0,0,.316.633,1.974,1.974,0,0,0,1.09.223h1.324v.879H31.594v-.879h1.483a1.515,1.515,0,0,0,.941-.24.748.748,0,0,0,.306-.615V315.077L28.593,331.53H27.8l-6.171-16.383v12.6a3.876,3.876,0,0,0,.281,1.682,2,2,0,0,0,.8.855,4.177,4.177,0,0,0,1.729.369v.879H17.906v-.879a3.385,3.385,0,0,0,2.18-.691,2.94,2.94,0,0,0,.574-2.074V315.933a.765.765,0,0,0-.27-.65,1.762,1.762,0,0,0-1.008-.205H17.906Z" transform="translate(-17.008 -0.336)"/>
      <path class="cls-3" d="M46.125,320.222a4.906,4.906,0,0,1,3.721,1.6,5.9,5.9,0,0,1,1.506,4.213,6.494,6.494,0,0,1-.674,3.076,5.033,5.033,0,0,1-1.922,2.01,5.192,5.192,0,0,1-2.689.738,4.72,4.72,0,0,1-3.615-1.617,6.684,6.684,0,0,1,.006-8.4A4.788,4.788,0,0,1,46.125,320.222Zm0,.832a2.548,2.548,0,0,0-2.156,1.189A6.584,6.584,0,0,0,43.125,326a6.818,6.818,0,0,0,.838,3.82,2.534,2.534,0,0,0,2.162,1.207,2.6,2.6,0,0,0,2.221-1.207,7.036,7.036,0,0,0,.85-3.949,6.3,6.3,0,0,0-.838-3.68A2.638,2.638,0,0,0,46.125,321.054Z" transform="translate(-17.008 -0.336)"/>
      <path class="cls-3" d="M52.945,320.55l3.645-.223a18.09,18.09,0,0,1,.328,2.414,5.219,5.219,0,0,1,1.74-1.793,4.341,4.341,0,0,1,2.268-.6,3.6,3.6,0,0,1,1.828.428,3.009,3.009,0,0,1,1.184,1.354,4.724,4.724,0,0,1,.445,2.074v5.344a1.125,1.125,0,0,0,.27.85,1.3,1.3,0,0,0,.9.252h.773v.879H60.539v-.879h.551a1.763,1.763,0,0,0,1.078-.246.893.893,0,0,0,.3-.738v-4.7A4.331,4.331,0,0,0,62,322.694a2.188,2.188,0,0,0-1.992-1.055,2.756,2.756,0,0,0-2.209,1.066,4.206,4.206,0,0,0-.885,2.777v4.066a1.11,1.11,0,0,0,.275.85,1.329,1.329,0,0,0,.908.252h.762v.879H53.051v-.879h.762a1.393,1.393,0,0,0,.873-.234.717.717,0,0,0,.3-.586v-7.09a1.406,1.406,0,0,0-.381-1.066,1.527,1.527,0,0,0-1.1-.363h-.562Z" transform="translate(-17.008 -0.336)"/>
      <path class="cls-3" d="M68.93,327.394A6.436,6.436,0,0,0,70.6,330.2a3.531,3.531,0,0,0,2.326.779,3.044,3.044,0,0,0,1.963-.557,1.742,1.742,0,0,0,.686-1.412,1.487,1.487,0,0,0-.252-.861,1.515,1.515,0,0,0-.7-.551,16.716,16.716,0,0,0-2.313-.533,9.526,9.526,0,0,1-2.488-.738,2.793,2.793,0,0,1-1.1-1.066,2.9,2.9,0,0,1-.393-1.477,3.365,3.365,0,0,1,.81-2.191,3.592,3.592,0,0,1,2.922-1.254,4.369,4.369,0,0,1,2.652.9l.775-.82h.481l.305,3.914h-.785a4.949,4.949,0,0,0-1.4-2.4,3.282,3.282,0,0,0-2.172-.732,2.6,2.6,0,0,0-1.75.545,1.69,1.69,0,0,0-.634,1.33,1.4,1.4,0,0,0,.587,1.148,5.122,5.122,0,0,0,2.254.739,16.786,16.786,0,0,1,2.536.554,3.08,3.08,0,0,1,1.49,1.083,2.971,2.971,0,0,1,.528,1.786,3.158,3.158,0,0,1-1.144,2.46,4.237,4.237,0,0,1-2.9,1.007,4.855,4.855,0,0,1-3.028-1.078l-.856.984h-.622l-.235-4.371Z" transform="translate(-17.008 -0.336)"/>
      <path class="cls-3" d="M81.609,316.073h.785v4.477h3.551v1.078H82.395v7.043a2.038,2.038,0,0,0,.434,1.4,1.411,1.411,0,0,0,1.1.486,1.665,1.665,0,0,0,1.359-.738,4.512,4.512,0,0,0,.656-2.437h.785a5.106,5.106,0,0,1-1,3.252,3.04,3.04,0,0,1-2.4,1.061,2.927,2.927,0,0,1-2.127-.744A2.6,2.6,0,0,1,80.438,329v-7.371h-1.91v-.82a3.071,3.071,0,0,0,1.988-1.09A6.179,6.179,0,0,0,81.609,316.073Z" transform="translate(-17.008 -0.336)"/>
      <path class="cls-3" d="M98.355,326.116H90.492a5.719,5.719,0,0,0,.938,3.539A3.249,3.249,0,0,0,94,330.815q2.3,0,3.691-2.613l.762.328a5.36,5.36,0,0,1-4.945,3.328,4.9,4.9,0,0,1-3.709-1.594,5.7,5.7,0,0,1-1.506-4.078,6.208,6.208,0,0,1,1.482-4.318,4.72,4.72,0,0,1,3.65-1.646,4.646,4.646,0,0,1,2.754.82,4.95,4.95,0,0,1,1.746,2.355A8.05,8.05,0,0,1,98.355,326.116Zm-7.863-.832H95.25a.8.8,0,0,0,.656-.287,1.57,1.57,0,0,0,.234-.979,3.181,3.181,0,0,0-.8-2.191,2.458,2.458,0,0,0-1.893-.9,2.544,2.544,0,0,0-2.068,1.09A5.412,5.412,0,0,0,90.492,325.284Z" transform="translate(-17.008 -0.336)"/>
      <path class="cls-3" d="M99.879,320.55l3.949-.2v4.441a9.753,9.753,0,0,1,1.523-3.316,2.711,2.711,0,0,1,2.2-1.125,1.9,1.9,0,0,1,1.424.545,2,2,0,0,1,.533,1.459,1.692,1.692,0,0,1-.357,1.148,1.139,1.139,0,0,1-.9.41,1.1,1.1,0,0,1-.85-.352,1.35,1.35,0,0,1-.322-.949,1.481,1.481,0,0,1,.188-.727,1.386,1.386,0,0,0,.176-.363q0-.176-.223-.176a1.725,1.725,0,0,0-1.09.563,5.065,5.065,0,0,0-1.3,2.156,11.585,11.585,0,0,0-.7,3.41v2.355a.715.715,0,0,0,.281.609,1.648,1.648,0,0,0,.961.211h1.395v.879h-6.82v-.879h1.09a1.347,1.347,0,0,0,.832-.217.642.642,0,0,0,.281-.521v-7a1.684,1.684,0,0,0-.34-1.166,1.256,1.256,0,0,0-.973-.369h-.961Z" transform="translate(-17.008 -0.336)"/>
      <path class="cls-3" d="M112.031,327.394a6.436,6.436,0,0,0,1.67,2.807,3.531,3.531,0,0,0,2.326.779,3.044,3.044,0,0,0,1.963-.557,1.742,1.742,0,0,0,.686-1.412,1.487,1.487,0,0,0-.252-.861,1.515,1.515,0,0,0-.7-.551,16.716,16.716,0,0,0-2.313-.533,9.526,9.526,0,0,1-2.488-.738,2.793,2.793,0,0,1-1.1-1.066,2.9,2.9,0,0,1-.393-1.477,3.365,3.365,0,0,1,.81-2.191,3.592,3.592,0,0,1,2.922-1.254,4.369,4.369,0,0,1,2.652.9l.775-.82h.481l.305,3.914h-.785a4.949,4.949,0,0,0-1.4-2.4,3.282,3.282,0,0,0-2.172-.732,2.6,2.6,0,0,0-1.75.545,1.69,1.69,0,0,0-.634,1.33,1.4,1.4,0,0,0,.587,1.148,5.122,5.122,0,0,0,2.254.739,16.786,16.786,0,0,1,2.536.554,3.08,3.08,0,0,1,1.49,1.083,2.971,2.971,0,0,1,.528,1.786,3.158,3.158,0,0,1-1.144,2.46,4.237,4.237,0,0,1-2.9,1.007,4.855,4.855,0,0,1-3.028-1.078l-.856.984h-.622l-.235-4.371Z" transform="translate(-17.008 -0.336)"/>
      <path class="cls-3" d="M124.406,316.577a1.431,1.431,0,1,1-1,.422A1.356,1.356,0,0,1,124.406,316.577Zm.023,8.754a1.42,1.42,0,0,1,1.418,1.43,1.413,1.413,0,0,1-.416,1.031,1.356,1.356,0,0,1-1,.422,1.4,1.4,0,0,1-1.014-.422,1.366,1.366,0,0,1-.428-1.008,1.44,1.44,0,0,1,1.441-1.453Z" transform="translate(-17.008 -0.336)"/>
    </g>
  </g>
</svg>
